<svg width="160" height="160" viewBox="0 0 160 160" fill="none" xmlns="http://www.w3.org/2000/svg">
<path fill-rule="evenodd" clip-rule="evenodd" d="M111.628 11.7073V24.8976L126.512 37.3854V11.7073H111.628ZM137.674 46.7512V9.7561C137.674 4.37073 133.507 0 128.372 0L109.767 0C104.633 0 100.465 4.37073 100.465 9.7561V15.5317L97.4363 12.9873C92.4875 8.83406 86.3382 6.57126 80 6.57126C73.6618 6.57126 67.5125 8.83406 62.5637 12.9873L2.0986 63.719C0.942014 64.6888 0.200122 66.1007 0.0361367 67.6442C-0.127849 69.1877 0.299506 70.7363 1.22419 71.9493C2.14887 73.1623 3.49513 73.9404 4.96681 74.1123C6.43849 74.2843 7.91504 73.8361 9.07163 72.8663L14.8837 67.9805V148.293H5.5814C4.10112 148.293 2.68147 148.909 1.63475 150.007C0.588038 151.105 0 152.594 0 154.146C0 155.699 0.588038 157.188 1.63475 158.286C2.68147 159.383 4.10112 160 5.5814 160H154.419C155.899 160 157.319 159.383 158.365 158.286C159.412 157.188 160 155.699 160 154.146C160 152.594 159.412 151.105 158.365 150.007C157.319 148.909 155.899 148.293 154.419 148.293H145.116V67.9805L150.936 72.8663C152.094 73.8132 153.562 74.243 155.021 74.0624C156.479 73.8819 157.811 73.1057 158.728 71.9021C159.644 70.6984 160.072 69.1644 159.917 67.6325C159.762 66.1007 159.038 64.6946 157.901 63.719L137.674 46.7512ZM133.953 58.6146L90.4633 22.1268C87.4938 19.6341 83.8036 18.2759 80 18.2759C76.1964 18.2759 72.5062 19.6341 69.5367 22.1268L26.0465 58.6146V148.293H52.093V114.732C52.093 109.549 52.093 105.077 52.5544 101.495C53.0456 97.6546 54.1544 93.9785 56.9972 90.9971C59.84 88.0156 63.3526 86.8527 67.0065 86.3376C70.4223 85.8537 74.6865 85.8537 79.6354 85.8537H80.3647C85.3135 85.8537 89.5777 85.8537 92.9935 86.3376C96.6549 86.8527 100.16 88.0156 103.003 90.9971C105.846 93.9785 106.954 97.6546 107.446 101.495C107.907 105.077 107.907 109.549 107.907 114.74V148.293H133.953V58.6146ZM96.7442 148.293V115.122C96.7442 109.44 96.7293 105.756 96.387 103.056C96.0595 100.519 95.5386 99.7229 95.107 99.2781C94.6828 98.8332 93.9237 98.279 91.5051 97.9356C88.9228 97.5766 85.4177 97.561 80 97.561C74.5823 97.561 71.0698 97.5766 68.4949 97.9356C66.0763 98.279 65.3172 98.8332 64.893 99.2781C64.4688 99.7229 63.9405 100.519 63.613 103.056C63.2707 105.764 63.2558 109.44 63.2558 115.122V148.293H96.7442ZM80 46.8293C78.7784 46.8293 77.5688 47.0816 76.4402 47.5719C75.3115 48.0622 74.2861 48.7808 73.4223 49.6868C72.5585 50.5927 71.8733 51.6682 71.4058 52.8519C70.9383 54.0355 70.6977 55.3042 70.6977 56.5854C70.6977 57.8666 70.9383 59.1352 71.4058 60.3189C71.8733 61.5025 72.5585 62.578 73.4223 63.484C74.2861 64.3899 75.3115 65.1085 76.4402 65.5988C77.5688 66.0891 78.7784 66.3415 80 66.3415C82.4671 66.3415 84.8332 65.3136 86.5777 63.484C88.3223 61.6543 89.3023 59.1728 89.3023 56.5854C89.3023 53.9979 88.3223 51.5164 86.5777 49.6868C84.8332 47.8571 82.4671 46.8293 80 46.8293ZM59.5349 56.5854C59.5349 50.8929 61.691 45.4336 65.529 41.4084C69.3669 37.3833 74.5723 35.122 80 35.122C85.4277 35.122 90.6331 37.3833 94.471 41.4084C98.309 45.4336 100.465 50.8929 100.465 56.5854C100.465 62.2778 98.309 67.7371 94.471 71.7623C90.6331 75.7875 85.4277 78.0488 80 78.0488C74.5723 78.0488 69.3669 75.7875 65.529 71.7623C61.691 67.7371 59.5349 62.2778 59.5349 56.5854Z" fill="#F8F8F8"/>
</svg>
