<svg width="160" height="160" viewBox="0 0 160 160" fill="none" xmlns="http://www.w3.org/2000/svg">
<path d="M140 20L96.6666 140C96.3742 140.638 95.9046 141.179 95.3137 141.558C94.7228 141.938 94.0354 142.139 93.3333 142.139C92.6312 142.139 91.9439 141.938 91.353 141.558C90.7621 141.179 90.2925 140.638 90 140L66.6666 93.3333L20 70C19.3617 69.7075 18.8208 69.2379 18.4416 68.647C18.0624 68.0561 17.8608 67.3688 17.8608 66.6667C17.8608 65.9646 18.0624 65.2772 18.4416 64.6863C18.8208 64.0954 19.3617 63.6258 20 63.3333L140 20Z" stroke="#F8F8F8" stroke-width="13.3333" stroke-linecap="round" stroke-linejoin="round"/>
</svg>
