<svg width="160" height="160" viewBox="0 0 160 160" fill="none" xmlns="http://www.w3.org/2000/svg">
<path d="M103.337 93.3334H98.0699L96.2032 91.5333C102.962 83.6935 106.677 73.6846 106.67 63.3334C106.67 54.7628 104.128 46.3848 99.3669 39.2586C94.6053 32.1325 87.8376 26.5784 79.9195 23.2986C72.0013 20.0188 63.2885 19.1606 54.8826 20.8327C46.4768 22.5047 38.7555 26.6318 32.6952 32.6921C26.635 38.7523 22.5079 46.4736 20.8358 54.8794C19.1638 63.2853 20.0219 71.9982 23.3017 79.9163C26.5815 87.8344 32.1357 94.6022 39.2618 99.3637C46.3879 104.125 54.766 106.667 63.3365 106.667C74.0699 106.667 83.9365 102.733 91.5365 96.2L93.3365 98.0667V103.333L126.67 136.6L136.603 126.667L103.337 93.3334ZM63.3365 93.3334C46.7365 93.3334 33.3365 79.9334 33.3365 63.3334C33.3365 46.7334 46.7365 33.3334 63.3365 33.3334C79.9365 33.3334 93.3365 46.7334 93.3365 63.3334C93.3365 79.9334 79.9365 93.3334 63.3365 93.3334Z" fill="#F8F8F8"/>
</svg>
