<svg width="326" height="191" viewBox="0 0 326 191" fill="none" xmlns="http://www.w3.org/2000/svg">
<g filter="url(#filter0_f_240_3095)">
<path d="M92.7939 87.6389C92.7939 87.6389 229.883 88.9529 259.564 80.3329C289.245 71.7129 289.207 26.9749 259.564 15.9469C229.921 4.91893 219.79 44.3379 219.79 44.3379" stroke="#D0D0D0" stroke-width="20" stroke-linecap="round"/>
<path d="M137.816 139.656C137.816 139.656 238.424 130.566 282.777 139.656C327.13 148.746 313.007 174.823 291.987 176.015C270.967 177.207 251.57 163.395 251.57 163.395" stroke="#D0D0D0" stroke-width="20" stroke-linecap="round"/>
<path d="M17.9531 31.589C17.9531 31.589 48.4721 34.119 84.6351 34.119C120.798 34.119 169.815 29.373 169.815 29.373" stroke="#D0D0D0" stroke-width="20" stroke-linecap="round"/>
<path d="M26.74 80.386H64.795L42.917 112.513L68.496 112.997L14.807 176.543L27.816 128.094H4L26.74 80.386Z" fill="url(#paint0_linear_240_3095)"/>
</g>
<defs>
<filter id="filter0_f_240_3095" x="0" y="0" width="325.933" height="190.088" filterUnits="userSpaceOnUse" color-interpolation-filters="sRGB">
<feFlood flood-opacity="0" result="BackgroundImageFix"/>
<feBlend mode="normal" in="SourceGraphic" in2="BackgroundImageFix" result="shape"/>
<feGaussianBlur stdDeviation="2" result="effect1_foregroundBlur_240_3095"/>
</filter>
<linearGradient id="paint0_linear_240_3095" x1="30.3144" y1="128.464" x2="0.187862" y2="117.42" gradientUnits="userSpaceOnUse">
<stop stop-color="#FFD100"/>
<stop offset="1" stop-color="#FFF0AA"/>
</linearGradient>
</defs>
</svg>
