<svg width="432" height="342" viewBox="0 0 432 342" fill="none" xmlns="http://www.w3.org/2000/svg">
<g filter="url(#filter0_f_240_4581)">
<path d="M178.632 208.299C179.263 208.317 185.667 233.547 185.667 243.351C185.667 253.155 182.517 261.104 178.632 261.104C174.747 261.104 171.597 253.156 171.597 243.352C171.597 233.548 177.997 208.282 178.632 208.299Z" fill="#42A0F0"/>
<path d="M177.559 237.72C178.587 238.077 178.899 240.298 178.257 242.681C177.615 245.065 176.261 246.706 175.233 246.35C174.206 245.994 173.892 243.773 174.535 241.39C175.178 239.006 176.53 237.364 177.559 237.72Z" fill="white"/>
<path d="M238.563 208.299C239.194 208.317 245.598 233.547 245.598 243.351C245.598 253.155 242.448 261.104 238.563 261.104C234.678 261.104 231.528 253.156 231.528 243.352C231.528 233.548 237.928 208.282 238.563 208.299Z" fill="#42A0F0"/>
<path d="M237.49 237.72C238.518 238.077 238.83 240.298 238.188 242.681C237.547 245.065 236.192 246.706 235.165 246.35C234.137 245.994 233.824 243.773 234.466 241.39C235.109 239.006 236.462 237.364 237.49 237.72Z" fill="white"/>
<path d="M298.494 205.299C299.125 205.317 305.529 230.547 305.529 240.351C305.529 250.155 302.379 258.104 298.494 258.104C294.609 258.104 291.459 250.156 291.459 240.352C291.459 230.548 297.859 205.282 298.494 205.299Z" fill="#42A0F0"/>
<path d="M297.421 234.72C298.449 235.077 298.761 237.298 298.119 239.681C297.477 242.065 296.123 243.706 295.095 243.35C294.067 242.994 293.754 240.773 294.397 238.39C295.04 236.006 296.392 234.364 297.421 234.72Z" fill="white"/>
<path d="M206.835 275.299C207.466 275.317 213.87 300.547 213.87 310.351C213.87 320.155 210.72 328.104 206.835 328.104C202.95 328.104 199.8 320.156 199.8 310.352C199.8 300.548 206.2 275.282 206.835 275.299Z" fill="#42A0F0"/>
<path d="M205.762 304.72C206.79 305.077 207.102 307.298 206.46 309.681C205.819 312.065 204.464 313.706 203.437 313.35C202.409 312.994 202.096 310.773 202.738 308.39C203.381 306.006 204.734 304.364 205.762 304.72Z" fill="white"/>
<path d="M266.766 275.299C267.397 275.317 273.801 300.547 273.801 310.351C273.801 320.155 270.651 328.104 266.766 328.104C262.881 328.104 259.731 320.156 259.731 310.352C259.731 300.548 266.131 275.282 266.766 275.299Z" fill="#42A0F0"/>
<path d="M265.693 304.72C266.721 305.077 267.033 307.298 266.391 309.681C265.749 312.065 264.395 313.706 263.367 313.35C262.339 312.994 262.026 310.773 262.669 308.39C263.312 306.006 264.664 304.364 265.693 304.72Z" fill="white"/>
<path d="M330.222 275.299C330.853 275.317 337.257 300.547 337.257 310.351C337.257 320.155 334.107 328.104 330.222 328.104C326.337 328.104 323.187 320.156 323.187 310.352C323.187 300.548 329.587 275.282 330.222 275.299Z" fill="#42A0F0"/>
<path d="M329.149 304.72C330.177 305.077 330.489 307.298 329.847 309.681C329.205 312.065 327.851 313.706 326.823 313.35C325.795 312.994 325.482 310.773 326.125 308.39C326.768 306.006 328.12 304.364 329.149 304.72Z" fill="white"/>
<path d="M106.8 235.424H147.211L123.982 269.535L151.142 270.049L94.1342 337.524L107.947 286.08H82.6602L106.8 235.424Z" fill="url(#paint0_linear_240_4581)"/>
<path d="M100.698 199.252C150.642 199.252 191.129 158.559 191.129 108.362C191.129 58.1648 150.642 17.4719 100.698 17.4719C50.7544 17.4719 10.2671 58.1648 10.2671 108.362C10.2671 158.559 50.7544 199.252 100.698 199.252Z" fill="#FA9E42"/>
<g filter="url(#filter1_f_240_4581)">
<path d="M94.1638 95.4362C124.219 79.4727 141.029 52.3097 131.711 34.7658C122.393 17.222 90.4742 15.9409 60.4193 31.9044C30.3643 47.8679 13.554 75.0309 22.8723 92.5748C32.1906 110.119 64.1089 111.4 94.1638 95.4362Z" fill="#F8E36F"/>
</g>
<g filter="url(#filter2_d_240_4581)">
<path d="M301.345 266.942H109.913C91.3426 266.928 73.4976 259.73 60.1137 246.857C46.7298 233.983 38.8447 216.431 38.1092 197.875C37.3737 179.319 43.8448 161.198 56.1677 147.306C68.4906 133.413 85.71 124.826 104.221 123.342C106.861 104.702 115.278 87.3585 128.289 73.7518C141.299 60.1451 158.248 50.9598 176.752 47.4882C195.255 44.0166 214.381 46.4334 231.439 54.3986C248.497 62.3637 262.628 75.4764 271.845 91.8918C288.75 86.04 307.015 85.3561 324.31 89.9275C341.605 94.4989 357.146 104.118 368.952 117.559C380.757 130.999 388.292 147.652 390.594 165.392C392.896 183.132 389.862 201.156 381.879 217.165C377.194 231.63 368.047 244.238 355.751 253.181C343.455 262.124 328.641 266.941 313.437 266.942H301.345Z" fill="url(#paint1_linear_240_4581)"/>
<path d="M313.437 265.941C321.157 265.941 328.748 264.709 335.998 262.278C343.009 259.927 349.59 256.496 355.56 252.081C361.462 247.717 366.635 242.489 370.936 236.542C375.29 230.522 378.652 223.899 380.928 216.857L380.951 216.785L380.985 216.717C384.011 210.67 386.341 204.272 387.911 197.703C389.526 190.942 390.345 183.957 390.345 176.941C390.345 170.902 389.737 164.867 388.537 159.004C387.368 153.29 385.623 147.67 383.352 142.299C381.121 137.026 378.361 131.939 375.146 127.182C371.962 122.469 368.306 118.037 364.278 114.009C360.25 109.981 355.819 106.325 351.106 103.141C346.348 99.9263 341.261 97.1656 335.988 94.9351C330.617 92.6635 324.997 90.9188 319.283 89.7496C313.42 88.5498 307.385 87.9414 301.345 87.9414C291.346 87.9414 281.531 89.5871 272.172 92.8327L271.383 93.1065L270.973 92.3781C263.357 78.8362 252.279 67.4636 238.937 59.4898C232.189 55.4572 224.94 52.3409 217.391 50.2276C209.602 48.0473 201.512 46.9419 193.345 46.9419C182.361 46.9419 171.638 48.9189 161.475 52.8179C151.657 56.5846 142.65 62.0256 134.705 68.9899C126.806 75.9141 120.251 84.0841 115.221 93.2727C110.069 102.687 106.701 112.849 105.211 123.477L105.1 124.272L104.299 124.335C95.3408 125.036 86.7219 127.395 78.6818 131.345C70.8694 135.184 63.8932 140.375 57.947 146.776C45.7289 159.929 39 177.065 39 195.029C39 204.602 40.8748 213.889 44.5723 222.631C46.3495 226.832 48.5491 230.885 51.1102 234.676C53.6472 238.431 56.5607 241.962 59.7699 245.171C62.9791 248.381 66.5104 251.294 70.2655 253.831C74.0565 256.392 78.109 258.592 82.3106 260.369C91.0525 264.067 100.339 265.941 109.913 265.941H301.345H313.437ZM313.437 266.941H301.345H109.913C70.1966 266.941 38 234.745 38 195.029C38 157.228 67.1646 126.239 104.221 123.338C110.35 79.5993 147.917 45.9419 193.345 45.9419C227.048 45.9419 256.422 64.4651 271.845 91.8879C281.087 88.6826 291.012 86.9414 301.345 86.9414C351.051 86.9414 391.345 127.236 391.345 176.941C391.345 191.398 387.936 205.06 381.879 217.165C372.544 246.05 345.431 266.941 313.437 266.941Z" fill="white" fill-opacity="0.5"/>
</g>
</g>
<defs>
<filter id="filter0_f_240_4581" x="6.26709" y="13.4719" width="389.078" height="328.052" filterUnits="userSpaceOnUse" color-interpolation-filters="sRGB">
<feFlood flood-opacity="0" result="BackgroundImageFix"/>
<feBlend mode="normal" in="SourceGraphic" in2="BackgroundImageFix" result="shape"/>
<feGaussianBlur stdDeviation="2" result="effect1_foregroundBlur_240_4581"/>
</filter>
<filter id="filter1_f_240_4581" x="0.301758" y="0.721924" width="153.98" height="125.897" filterUnits="userSpaceOnUse" color-interpolation-filters="sRGB">
<feFlood flood-opacity="0" result="BackgroundImageFix"/>
<feBlend mode="normal" in="SourceGraphic" in2="BackgroundImageFix" result="shape"/>
<feGaussianBlur stdDeviation="10" result="effect1_foregroundBlur_240_4581"/>
</filter>
<filter id="filter2_d_240_4581" x="18" y="17.9419" width="413.345" height="281" filterUnits="userSpaceOnUse" color-interpolation-filters="sRGB">
<feFlood flood-opacity="0" result="BackgroundImageFix"/>
<feColorMatrix in="SourceAlpha" type="matrix" values="0 0 0 0 0 0 0 0 0 0 0 0 0 0 0 0 0 0 127 0" result="hardAlpha"/>
<feOffset dx="10" dy="2"/>
<feGaussianBlur stdDeviation="15"/>
<feColorMatrix type="matrix" values="0 0 0 0 0.501961 0 0 0 0 0.501961 0 0 0 0 0.501961 0 0 0 0.302 0"/>
<feBlend mode="normal" in2="BackgroundImageFix" result="effect1_dropShadow_240_4581"/>
<feBlend mode="normal" in="SourceGraphic" in2="effect1_dropShadow_240_4581" result="shape"/>
</filter>
<linearGradient id="paint0_linear_240_4581" x1="110.601" y1="286.474" x2="78.6124" y2="274.747" gradientUnits="userSpaceOnUse">
<stop stop-color="#FFD100"/>
<stop offset="1" stop-color="#FFF0AA"/>
</linearGradient>
<linearGradient id="paint1_linear_240_4581" x1="214.698" y1="45.9443" x2="317.341" y2="294.108" gradientUnits="userSpaceOnUse">
<stop stop-color="white" stop-opacity="0.604"/>
<stop offset="1" stop-color="white" stop-opacity="0.2"/>
</linearGradient>
</defs>
</svg>
