<svg width="420" height="354" viewBox="0 0 420 354" fill="none" xmlns="http://www.w3.org/2000/svg">
<g filter="url(#filter0_f_240_4670)">
<path d="M166.352 220.426C166.983 220.444 173.387 245.674 173.387 255.478C173.387 265.282 170.237 273.231 166.352 273.231C162.467 273.231 159.317 265.283 159.317 255.479C159.317 245.675 165.717 220.409 166.352 220.426Z" fill="#42A0F0"/>
<path d="M165.279 249.847C166.306 250.204 166.619 252.424 165.977 254.808C165.335 257.191 163.981 258.833 162.953 258.477C161.925 258.121 161.612 255.899 162.255 253.516C162.898 251.133 164.25 249.491 165.279 249.847Z" fill="white"/>
<path d="M226.283 220.426C226.914 220.444 233.318 245.674 233.318 255.478C233.318 265.282 230.168 273.231 226.283 273.231C222.398 273.231 219.248 265.283 219.248 255.479C219.248 245.675 225.648 220.409 226.283 220.426Z" fill="#42A0F0"/>
<path d="M225.21 249.847C226.238 250.204 226.55 252.424 225.908 254.808C225.266 257.191 223.912 258.833 222.884 258.477C221.856 258.121 221.543 255.899 222.186 253.516C222.829 251.133 224.181 249.491 225.21 249.847Z" fill="white"/>
<path d="M286.214 217.426C286.845 217.444 293.249 242.674 293.249 252.478C293.249 262.282 290.099 270.231 286.214 270.231C282.329 270.231 279.179 262.283 279.179 252.479C279.179 242.675 285.579 217.409 286.214 217.426Z" fill="#42A0F0"/>
<path d="M285.141 246.847C286.168 247.204 286.481 249.424 285.839 251.808C285.197 254.191 283.843 255.833 282.815 255.477C281.787 255.121 281.474 252.899 282.117 250.516C282.76 248.133 284.112 246.491 285.141 246.847Z" fill="white"/>
<path d="M194.555 287.426C195.186 287.444 201.59 312.674 201.59 322.478C201.59 332.282 198.44 340.231 194.555 340.231C190.67 340.231 187.52 332.283 187.52 322.479C187.52 312.675 193.92 287.409 194.555 287.426Z" fill="#42A0F0"/>
<path d="M193.482 316.847C194.51 317.204 194.822 319.424 194.18 321.808C193.538 324.191 192.184 325.833 191.156 325.477C190.128 325.121 189.815 322.899 190.458 320.516C191.101 318.133 192.453 316.491 193.482 316.847Z" fill="white"/>
<path d="M254.486 287.426C255.117 287.444 261.521 312.674 261.521 322.478C261.521 332.282 258.371 340.231 254.486 340.231C250.601 340.231 247.451 332.283 247.451 322.479C247.451 312.675 253.851 287.409 254.486 287.426Z" fill="#42A0F0"/>
<path d="M253.413 316.847C254.44 317.204 254.753 319.424 254.111 321.808C253.469 324.191 252.115 325.833 251.087 325.477C250.059 325.121 249.746 322.899 250.389 320.516C251.032 318.133 252.384 316.491 253.413 316.847Z" fill="white"/>
<path d="M317.942 287.426C318.573 287.444 324.977 312.674 324.977 322.478C324.977 332.282 321.827 340.231 317.942 340.231C314.057 340.231 310.907 332.283 310.907 322.479C310.907 312.675 317.307 287.409 317.942 287.426Z" fill="#42A0F0"/>
<path d="M316.869 316.847C317.896 317.204 318.209 319.424 317.567 321.808C316.925 324.191 315.571 325.833 314.543 325.477C313.515 325.121 313.202 322.899 313.845 320.516C314.488 318.133 315.84 316.491 316.869 316.847Z" fill="white"/>
<path d="M100.544 8.3486C107.097 8.34721 113.634 9.00958 120.053 10.3256C132.443 12.8776 144.207 17.8529 154.668 24.9656C169.161 34.7889 180.741 48.3349 188.189 64.18C195.638 80.0251 198.681 97.5841 196.998 115.012C195.315 132.439 188.969 149.091 178.626 163.219C168.283 177.346 154.326 188.426 138.221 195.295C132.367 197.782 126.279 199.681 120.049 200.964C106.54 203.704 92.601 203.534 79.1622 200.465C65.7233 197.396 53.0929 191.498 42.1122 183.165C31.1316 174.831 22.053 164.253 15.4813 152.136C8.90956 140.018 4.99562 126.639 4.00021 112.891C9.63342 114.211 15.4003 114.877 21.1862 114.875C36.0885 114.898 50.655 110.449 63.0002 102.102C75.025 93.9864 84.4385 82.5582 90.1002 69.2016C93.9978 59.9922 95.9967 50.0908 95.9772 40.0906C95.978 34.6599 95.3909 29.245 94.2262 23.9406C93.0925 18.8007 91.4164 13.7957 89.2262 9.0096C92.9829 8.57053 96.7619 8.34982 100.544 8.3486Z" fill="#713FFD"/>
<g filter="url(#filter1_f_240_4670)">
<path d="M166.048 38.4272C144.318 18.8613 115.85 15.0517 102.465 29.9182C89.0787 44.7847 95.8431 72.6977 117.573 92.2636C139.303 111.829 167.77 115.639 181.156 100.772C194.542 85.906 187.778 57.993 166.048 38.4272Z" fill="#A586FC"/>
</g>
<path d="M94.5209 247.551H134.932L111.703 281.662L138.863 282.176L81.8549 349.651L95.6679 298.207H70.3809L94.5209 247.551Z" fill="url(#paint0_linear_240_4670)"/>
<g filter="url(#filter2_d_240_4670)">
<path d="M289.066 279.069H97.6342C79.0638 279.054 61.2188 271.857 47.8349 258.983C34.451 246.11 26.5659 228.558 25.8304 210.002C25.0949 191.446 31.5659 173.325 43.8889 159.432C56.2118 145.54 73.4312 136.952 91.9422 135.469C94.582 116.829 102.999 99.4852 116.01 85.8785C129.021 72.2718 145.97 63.0865 164.473 59.6149C182.976 56.1433 202.102 58.5601 219.16 66.5253C236.218 74.4904 250.349 87.6031 259.566 104.019C276.471 98.1667 294.736 97.4828 312.031 102.054C329.326 106.626 344.867 116.245 356.673 129.685C368.478 143.126 376.013 159.778 378.315 177.519C380.618 195.259 377.584 213.283 369.6 229.292C364.916 243.756 355.769 256.365 343.472 265.308C331.176 274.251 316.363 279.068 301.158 279.069H289.066Z" fill="url(#paint1_linear_240_4670)"/>
<path d="M301.158 278.068C308.878 278.068 316.469 276.836 323.719 274.404C330.73 272.054 337.312 268.623 343.282 264.208C349.183 259.843 354.356 254.615 358.657 248.669C363.011 242.648 366.373 236.025 368.649 228.984L368.672 228.912L368.706 228.844C371.732 222.796 374.062 216.399 375.632 209.829C377.247 203.069 378.067 196.084 378.067 189.068C378.067 183.029 377.458 176.994 376.258 171.131C375.089 165.417 373.345 159.796 371.073 154.426C368.843 149.152 366.082 144.066 362.867 139.308C359.684 134.595 356.027 130.163 351.999 126.136C347.972 122.108 343.54 118.451 338.827 115.267C334.069 112.053 328.983 109.292 323.709 107.062C318.339 104.79 312.718 103.046 307.004 101.876C301.141 100.676 295.106 100.068 289.067 100.068C279.067 100.068 269.252 101.714 259.893 104.959L259.104 105.233L258.694 104.505C251.078 90.9629 240.001 79.5903 226.658 71.6165C219.911 67.5839 212.661 64.4676 205.112 62.3543C197.323 60.1741 189.233 59.0686 181.067 59.0686C170.082 59.0686 159.359 61.0456 149.196 64.9446C139.378 68.7113 130.371 74.1523 122.426 81.1166C114.527 88.0408 107.972 96.2108 102.943 105.399C97.7897 114.814 94.4218 124.976 92.9325 135.604L92.821 136.399L92.0202 136.462C83.062 137.163 74.4431 139.521 66.403 143.472C58.5906 147.31 51.6144 152.502 45.6682 158.903C33.4501 172.055 26.7212 189.192 26.7212 207.155C26.7212 216.729 28.596 226.016 32.2935 234.757C34.0706 238.959 36.2703 243.012 38.8314 246.803C41.3684 250.558 44.2819 254.089 47.4911 257.298C50.7003 260.507 54.2316 263.421 57.9867 265.958C61.7776 268.519 65.8302 270.719 70.0318 272.496C78.7736 276.193 88.0603 278.068 97.6339 278.068H289.067H301.158ZM301.158 279.068H289.067H97.6339C57.9178 279.068 25.7212 246.872 25.7212 207.155C25.7212 169.354 54.8858 138.365 91.9421 135.465C98.0716 91.726 135.638 58.0686 181.067 58.0686C214.769 58.0686 244.144 76.5918 259.566 104.015C268.808 100.809 278.734 99.0681 289.067 99.0681C338.773 99.0681 379.067 139.363 379.067 189.068C379.067 203.524 375.657 217.187 369.6 229.291C360.265 258.177 333.152 279.068 301.158 279.068Z" fill="white" fill-opacity="0.5"/>
</g>
</g>
<defs>
<filter id="filter0_f_240_4670" x="0" y="4.34863" width="383.066" height="349.302" filterUnits="userSpaceOnUse" color-interpolation-filters="sRGB">
<feFlood flood-opacity="0" result="BackgroundImageFix"/>
<feBlend mode="normal" in="SourceGraphic" in2="BackgroundImageFix" result="shape"/>
<feGaussianBlur stdDeviation="2" result="effect1_foregroundBlur_240_4670"/>
</filter>
<filter id="filter1_f_240_4670" x="75.5923" y="0.849365" width="132.437" height="128.992" filterUnits="userSpaceOnUse" color-interpolation-filters="sRGB">
<feFlood flood-opacity="0" result="BackgroundImageFix"/>
<feBlend mode="normal" in="SourceGraphic" in2="BackgroundImageFix" result="shape"/>
<feGaussianBlur stdDeviation="10" result="effect1_foregroundBlur_240_4670"/>
</filter>
<filter id="filter2_d_240_4670" x="5.72119" y="30.0686" width="413.345" height="281" filterUnits="userSpaceOnUse" color-interpolation-filters="sRGB">
<feFlood flood-opacity="0" result="BackgroundImageFix"/>
<feColorMatrix in="SourceAlpha" type="matrix" values="0 0 0 0 0 0 0 0 0 0 0 0 0 0 0 0 0 0 127 0" result="hardAlpha"/>
<feOffset dx="10" dy="2"/>
<feGaussianBlur stdDeviation="15"/>
<feColorMatrix type="matrix" values="0 0 0 0 0.501961 0 0 0 0 0.501961 0 0 0 0 0.501961 0 0 0 0.302 0"/>
<feBlend mode="normal" in2="BackgroundImageFix" result="effect1_dropShadow_240_4670"/>
<feBlend mode="normal" in="SourceGraphic" in2="effect1_dropShadow_240_4670" result="shape"/>
</filter>
<linearGradient id="paint0_linear_240_4670" x1="98.3215" y1="298.601" x2="66.3331" y2="286.874" gradientUnits="userSpaceOnUse">
<stop stop-color="#FFD100"/>
<stop offset="1" stop-color="#FFF0AA"/>
</linearGradient>
<linearGradient id="paint1_linear_240_4670" x1="202.419" y1="58.071" x2="305.062" y2="306.235" gradientUnits="userSpaceOnUse">
<stop stop-color="white" stop-opacity="0.604"/>
<stop offset="1" stop-color="white" stop-opacity="0.2"/>
</linearGradient>
</defs>
</svg>
