<svg width="414" height="324" viewBox="0 0 414 324" fill="none" xmlns="http://www.w3.org/2000/svg">
<g filter="url(#filter0_f_240_4395)">
<path d="M160.632 190.357C161.263 190.375 167.667 215.605 167.667 225.409C167.667 235.213 164.517 243.162 160.632 243.162C156.747 243.162 153.597 235.214 153.597 225.41C153.597 215.606 159.997 190.34 160.632 190.357Z" fill="#42A0F0"/>
<path d="M159.559 219.779C160.587 220.136 160.899 222.356 160.257 224.739C159.615 227.123 158.261 228.765 157.233 228.409C156.206 228.053 155.892 225.831 156.535 223.448C157.178 221.065 158.53 219.422 159.559 219.779Z" fill="white"/>
<path d="M220.563 190.357C221.194 190.375 227.598 215.605 227.598 225.409C227.598 235.213 224.448 243.162 220.563 243.162C216.678 243.162 213.528 235.214 213.528 225.41C213.528 215.606 219.928 190.34 220.563 190.357Z" fill="#42A0F0"/>
<path d="M219.49 219.779C220.518 220.136 220.83 222.356 220.188 224.739C219.547 227.123 218.192 228.765 217.165 228.409C216.137 228.053 215.824 225.831 216.466 223.448C217.109 221.065 218.462 219.422 219.49 219.779Z" fill="white"/>
<path d="M280.494 187.357C281.125 187.375 287.529 212.605 287.529 222.409C287.529 232.213 284.379 240.162 280.494 240.162C276.609 240.162 273.459 232.214 273.459 222.41C273.459 212.606 279.859 187.34 280.494 187.357Z" fill="#42A0F0"/>
<path d="M279.421 216.779C280.449 217.136 280.761 219.356 280.119 221.739C279.477 224.123 278.123 225.765 277.095 225.409C276.067 225.053 275.754 222.831 276.397 220.448C277.04 218.065 278.392 216.422 279.421 216.779Z" fill="white"/>
<path d="M188.835 257.357C189.466 257.375 195.87 282.605 195.87 292.409C195.87 302.213 192.72 310.162 188.835 310.162C184.95 310.162 181.8 302.214 181.8 292.41C181.8 282.606 188.2 257.34 188.835 257.357Z" fill="#42A0F0"/>
<path d="M187.762 286.779C188.79 287.136 189.102 289.356 188.46 291.739C187.819 294.123 186.464 295.765 185.437 295.409C184.409 295.053 184.096 292.831 184.738 290.448C185.381 288.065 186.734 286.422 187.762 286.779Z" fill="white"/>
<path d="M248.766 257.357C249.397 257.375 255.801 282.605 255.801 292.409C255.801 302.213 252.651 310.162 248.766 310.162C244.881 310.162 241.731 302.214 241.731 292.41C241.731 282.606 248.131 257.34 248.766 257.357Z" fill="#42A0F0"/>
<path d="M247.693 286.779C248.721 287.136 249.033 289.356 248.391 291.739C247.749 294.123 246.395 295.765 245.367 295.409C244.339 295.053 244.026 292.831 244.669 290.448C245.312 288.065 246.664 286.422 247.693 286.779Z" fill="white"/>
<path d="M312.222 257.357C312.853 257.375 319.257 282.605 319.257 292.409C319.257 302.213 316.107 310.162 312.222 310.162C308.337 310.162 305.187 302.214 305.187 292.41C305.187 282.606 311.587 257.34 312.222 257.357Z" fill="#42A0F0"/>
<path d="M311.149 286.779C312.177 287.136 312.489 289.356 311.847 291.739C311.205 294.123 309.851 295.765 308.823 295.409C307.795 295.053 307.482 292.831 308.125 290.448C308.768 288.065 310.12 286.422 311.149 286.779Z" fill="white"/>
<path d="M88.8002 217.482H129.211L105.982 251.593L133.142 252.107L76.1342 319.582L89.9472 268.138H64.6602L88.8002 217.482Z" fill="url(#paint0_linear_240_4395)"/>
<g filter="url(#filter1_d_240_4395)">
<path d="M283.345 249H91.913C73.3426 248.986 55.4976 241.789 42.1137 228.915C28.7298 216.041 20.8447 198.489 20.1092 179.933C19.3737 161.378 25.8448 143.257 38.1677 129.364C50.4906 115.471 67.71 106.884 86.221 105.4C88.8608 86.7601 97.2781 69.4167 110.289 55.81C123.299 42.2033 140.248 33.018 158.752 29.5464C177.255 26.0748 196.381 28.4916 213.439 36.4568C230.497 44.422 244.628 57.5346 253.845 73.9501C270.75 68.0982 289.015 67.4144 306.31 71.9857C323.605 76.5571 339.146 86.1765 350.952 99.617C362.757 113.057 370.292 129.71 372.594 147.45C374.896 165.19 371.862 183.214 363.879 199.223C359.194 213.688 350.047 226.296 337.751 235.239C325.455 244.182 310.641 249 295.437 249H283.345Z" fill="url(#paint1_linear_240_4395)"/>
<path d="M295.437 248C303.157 248 310.748 246.767 317.998 244.336C325.009 241.985 331.59 238.554 337.56 234.139C343.462 229.775 348.635 224.547 352.936 218.6C357.29 212.58 360.652 205.957 362.928 198.915L362.951 198.843L362.985 198.775C366.011 192.728 368.341 186.33 369.911 179.761C371.526 173 372.345 166.015 372.345 158.999C372.345 152.96 371.737 146.925 370.537 141.062C369.368 135.348 367.623 129.728 365.352 124.357C363.121 119.084 360.361 113.997 357.146 109.24C353.962 104.527 350.306 100.095 346.278 96.0672C342.25 92.0395 337.819 88.3828 333.106 85.1988C328.348 81.9845 323.261 79.2237 317.988 76.9932C312.617 74.7216 306.997 72.9769 301.283 71.8077C295.42 70.6079 289.385 69.9995 283.345 69.9995C273.346 69.9995 263.531 71.6452 254.172 74.8908L253.383 75.1646L252.973 74.4362C245.357 60.8943 234.279 49.5217 220.937 41.5479C214.189 37.5153 206.94 34.399 199.391 32.2857C191.602 30.1055 183.512 29 175.345 29C164.361 29 153.638 30.977 143.475 34.876C133.657 38.6427 124.65 44.0837 116.705 51.048C108.806 57.9722 102.251 66.1422 97.2213 75.3308C92.0685 84.7451 88.7006 94.9073 87.2113 105.535L87.0998 106.33L86.299 106.393C77.3408 107.094 68.7219 109.453 60.6818 113.403C52.8694 117.242 45.8932 122.434 39.947 128.834C27.7289 141.987 21 159.123 21 177.087C21 186.66 22.8748 195.947 26.5723 204.689C28.3495 208.891 30.5491 212.943 33.1102 216.734C35.6472 220.489 38.5607 224.02 41.7699 227.23C44.9791 230.439 48.5104 233.352 52.2655 235.889C56.0565 238.45 60.109 240.65 64.3106 242.427C73.0525 246.125 82.3391 248 91.9127 248H283.345H295.437ZM295.437 249H283.345H91.9127C52.1966 249 20 216.803 20 177.087C20 139.286 49.1646 108.297 86.221 105.396C92.3504 61.6574 129.917 28 175.345 28C209.048 28 238.422 46.5232 253.845 73.946C263.087 70.7407 273.012 68.9995 283.345 68.9995C333.051 68.9995 373.345 109.294 373.345 158.999C373.345 173.456 369.936 187.118 363.879 199.223C354.544 228.108 327.431 249 295.437 249Z" fill="white" fill-opacity="0.5"/>
</g>
</g>
<defs>
<filter id="filter0_f_240_4395" x="16" y="24" width="361.345" height="299.582" filterUnits="userSpaceOnUse" color-interpolation-filters="sRGB">
<feFlood flood-opacity="0" result="BackgroundImageFix"/>
<feBlend mode="normal" in="SourceGraphic" in2="BackgroundImageFix" result="shape"/>
<feGaussianBlur stdDeviation="2" result="effect1_foregroundBlur_240_4395"/>
</filter>
<filter id="filter1_d_240_4395" x="0" y="0" width="413.345" height="281" filterUnits="userSpaceOnUse" color-interpolation-filters="sRGB">
<feFlood flood-opacity="0" result="BackgroundImageFix"/>
<feColorMatrix in="SourceAlpha" type="matrix" values="0 0 0 0 0 0 0 0 0 0 0 0 0 0 0 0 0 0 127 0" result="hardAlpha"/>
<feOffset dx="10" dy="2"/>
<feGaussianBlur stdDeviation="15"/>
<feColorMatrix type="matrix" values="0 0 0 0 0.501961 0 0 0 0 0.501961 0 0 0 0 0.501961 0 0 0 0.302 0"/>
<feBlend mode="normal" in2="BackgroundImageFix" result="effect1_dropShadow_240_4395"/>
<feBlend mode="normal" in="SourceGraphic" in2="effect1_dropShadow_240_4395" result="shape"/>
</filter>
<linearGradient id="paint0_linear_240_4395" x1="92.6008" y1="268.532" x2="60.6124" y2="256.805" gradientUnits="userSpaceOnUse">
<stop stop-color="#FFD100"/>
<stop offset="1" stop-color="#FFF0AA"/>
</linearGradient>
<linearGradient id="paint1_linear_240_4395" x1="196.698" y1="28.0026" x2="299.341" y2="276.166" gradientUnits="userSpaceOnUse">
<stop stop-color="white" stop-opacity="0.604"/>
<stop offset="1" stop-color="white" stop-opacity="0.2"/>
</linearGradient>
</defs>
</svg>
