<svg width="424" height="357" viewBox="0 0 424 357" fill="none" xmlns="http://www.w3.org/2000/svg">
<g filter="url(#filter0_f_240_3667)">
<path d="M139.686 260.313C139.686 260.313 276.775 261.627 306.456 253.007C336.137 244.387 336.099 199.649 306.456 188.621C276.813 177.593 266.682 217.012 266.682 217.012" stroke="#D0D0D0" stroke-width="20" stroke-linecap="round"/>
<path d="M94.709 306.33C94.709 306.33 195.317 297.24 239.67 306.33C284.023 315.42 269.9 341.497 248.88 342.689C227.86 343.881 208.463 330.069 208.463 330.069" stroke="#D0D0D0" stroke-width="20" stroke-linecap="round"/>
<path d="M308.846 306.263H348.846" stroke="#D0D0D0" stroke-width="20" stroke-linecap="round"/>
<path d="M108.148 214.763C162.548 214.763 206.648 170.439 206.648 115.763C206.648 61.0868 162.548 16.763 108.148 16.763C53.7479 16.763 9.64795 61.0868 9.64795 115.763C9.64795 170.439 53.7479 214.763 108.148 214.763Z" fill="#FA9E42"/>
<g filter="url(#filter1_f_240_3667)">
<path d="M101.03 101.684C133.767 84.2963 152.077 54.7096 141.928 35.6003C131.778 16.4911 97.0115 15.0956 64.2749 32.4835C31.5383 49.8713 13.228 79.4581 23.3778 98.5673C33.5275 117.677 68.2938 119.072 101.03 101.684Z" fill="#F8E36F"/>
</g>
<g filter="url(#filter2_d_240_3667)">
<path d="M293.345 281.764H101.913C83.3426 281.75 65.4976 274.553 52.1137 261.679C38.7298 248.805 30.8447 231.253 30.1092 212.697C29.3737 194.141 35.8448 176.02 48.1677 162.128C60.4906 148.235 77.71 139.648 96.221 138.164C98.8608 119.524 107.278 102.181 120.289 88.5739C133.299 74.9672 150.248 65.782 168.752 62.3104C187.255 58.8388 206.381 61.2555 223.439 69.2207C240.497 77.1859 254.628 90.2986 263.845 106.714C280.75 100.862 299.015 100.178 316.311 104.75C333.606 109.322 349.148 118.942 360.953 132.383C372.759 145.824 380.293 162.477 382.594 180.217C384.896 197.958 381.861 215.982 373.877 231.991C369.192 246.454 360.045 259.062 347.749 268.004C335.453 276.946 320.641 281.763 305.437 281.764H293.345Z" fill="url(#paint0_linear_240_3667)"/>
<path d="M305.437 280.764C313.156 280.764 320.746 279.531 327.996 277.1C335.006 274.749 341.587 271.319 347.557 266.904C353.458 262.54 358.631 257.312 362.932 251.366C367.287 245.346 370.649 238.724 372.925 231.683L372.949 231.611L372.983 231.543C376.01 225.495 378.341 219.097 379.911 212.527C381.526 205.767 382.345 198.781 382.345 191.763C382.345 185.724 381.737 179.689 380.537 173.826C379.368 168.112 377.623 162.492 375.352 157.121C373.121 151.848 370.36 146.761 367.146 142.004C363.962 137.291 360.305 132.859 356.278 128.831C352.25 124.803 347.818 121.147 343.105 117.963C338.347 114.748 333.261 111.988 327.988 109.757C322.617 107.486 316.997 105.741 311.283 104.572C305.42 103.372 299.384 102.763 293.345 102.763C283.346 102.763 273.531 104.409 264.172 107.655L263.383 107.929L262.973 107.2C255.357 93.6582 244.279 82.2856 230.937 74.3118C224.189 70.2792 216.94 67.163 209.391 65.0497C201.602 62.8694 193.512 61.764 185.345 61.764C174.361 61.764 163.638 63.741 153.475 67.64C143.657 71.4067 134.65 76.8477 126.705 83.812C118.806 90.7362 112.251 98.9062 107.221 108.095C102.069 117.509 98.7006 127.671 97.2113 138.299L97.0998 139.094L96.299 139.157C87.3408 139.858 78.7219 142.217 70.6818 146.167C62.8694 150.006 55.8932 155.198 49.947 161.598C37.7289 174.751 31 191.887 31 209.851C31 219.424 32.8748 228.711 36.5723 237.453C38.3495 241.654 40.5491 245.707 43.1102 249.498C45.6472 253.253 48.5607 256.784 51.7699 259.994C54.9791 263.203 58.5104 266.116 62.2655 268.653C66.0565 271.214 70.109 273.414 74.3106 275.191C83.0525 278.889 92.3391 280.764 101.913 280.764H293.345H305.437ZM305.437 281.764H293.345H101.913C62.1966 281.764 30 249.567 30 209.851C30 172.05 59.1646 141.061 96.221 138.16C102.35 94.4213 139.917 60.764 185.345 60.764C219.048 60.764 248.422 79.2871 263.845 106.71C273.087 103.505 283.012 101.763 293.345 101.763C343.051 101.763 383.345 142.058 383.345 191.763C383.345 206.223 379.936 219.885 373.877 231.991C364.54 260.873 337.427 281.764 305.437 281.764Z" fill="white" fill-opacity="0.5"/>
</g>
</g>
<defs>
<filter id="filter0_f_240_3667" x="5.64795" y="12.763" width="381.697" height="343.999" filterUnits="userSpaceOnUse" color-interpolation-filters="sRGB">
<feFlood flood-opacity="0" result="BackgroundImageFix"/>
<feBlend mode="normal" in="SourceGraphic" in2="BackgroundImageFix" result="shape"/>
<feGaussianBlur stdDeviation="2" result="effect1_foregroundBlur_240_3667"/>
</filter>
<filter id="filter1_f_240_3667" x="0.577637" y="0.303223" width="164.15" height="133.561" filterUnits="userSpaceOnUse" color-interpolation-filters="sRGB">
<feFlood flood-opacity="0" result="BackgroundImageFix"/>
<feBlend mode="normal" in="SourceGraphic" in2="BackgroundImageFix" result="shape"/>
<feGaussianBlur stdDeviation="10" result="effect1_foregroundBlur_240_3667"/>
</filter>
<filter id="filter2_d_240_3667" x="10" y="32.764" width="413.345" height="281" filterUnits="userSpaceOnUse" color-interpolation-filters="sRGB">
<feFlood flood-opacity="0" result="BackgroundImageFix"/>
<feColorMatrix in="SourceAlpha" type="matrix" values="0 0 0 0 0 0 0 0 0 0 0 0 0 0 0 0 0 0 127 0" result="hardAlpha"/>
<feOffset dx="10" dy="2"/>
<feGaussianBlur stdDeviation="15"/>
<feColorMatrix type="matrix" values="0 0 0 0 0.501961 0 0 0 0 0.501961 0 0 0 0 0.501961 0 0 0 0.302 0"/>
<feBlend mode="normal" in2="BackgroundImageFix" result="effect1_dropShadow_240_3667"/>
<feBlend mode="normal" in="SourceGraphic" in2="effect1_dropShadow_240_3667" result="shape"/>
</filter>
<linearGradient id="paint0_linear_240_3667" x1="206.698" y1="60.7665" x2="309.341" y2="308.93" gradientUnits="userSpaceOnUse">
<stop stop-color="white" stop-opacity="0.604"/>
<stop offset="1" stop-color="white" stop-opacity="0.2"/>
</linearGradient>
</defs>
</svg>
