<svg width="358" height="186" viewBox="0 0 358 186" fill="none" xmlns="http://www.w3.org/2000/svg">
<g filter="url(#filter0_f_240_3163)">
<path d="M138.549 87.6389C138.549 87.6389 275.638 88.9529 305.319 80.3329C335 71.7129 334.962 26.9749 305.319 15.9469C275.676 4.91893 265.545 44.3379 265.545 44.3379" stroke="#D0D0D0" stroke-width="20" stroke-linecap="round"/>
<path d="M148.571 134.656C148.571 134.656 211.118 125.566 238.693 134.656C266.268 143.746 257.487 169.823 244.419 171.015C231.351 172.207 219.293 158.395 219.293 158.395" stroke="#D0D0D0" stroke-width="20" stroke-linecap="round"/>
<path d="M63.708 31.589C63.708 31.589 94.227 34.119 130.39 34.119C166.553 34.119 215.57 29.373 215.57 29.373" stroke="#D0D0D0" stroke-width="20" stroke-linecap="round"/>
<path d="M61.4251 55.2699C72.9079 55.2534 84.1291 58.6978 93.6251 65.1539C102.246 70.9974 109.134 79.0554 113.565 88.4809C117.996 97.9065 119.805 108.352 118.804 118.718C117.803 129.085 114.028 138.991 107.875 147.394C101.722 155.798 93.4194 162.388 83.8391 166.474C73.5962 170.813 62.3132 172.084 51.3617 170.131C40.4102 168.179 30.2618 163.086 22.1501 155.474C11.5364 145.535 5.05609 131.962 4.00012 117.46C7.35069 118.245 10.7807 118.641 14.2221 118.64C21.6721 118.636 29.002 116.763 35.54 113.191C42.0779 109.619 47.6146 104.463 51.6426 98.1961C55.6706 91.929 58.0611 84.7509 58.5947 77.3201C59.1284 69.8892 57.7882 62.4433 54.6971 55.6648C56.9303 55.4031 59.1767 55.2712 61.4251 55.2699Z" fill="#713FFD"/>
<g filter="url(#filter1_f_240_3163)">
<path d="M100.391 73.1628C87.4645 61.5242 70.5312 59.2579 62.5688 68.101C54.6065 76.9441 58.6303 93.5478 71.5563 105.186C84.4823 116.825 101.416 119.091 109.378 110.248C117.34 101.405 113.317 84.8014 100.391 73.1628Z" fill="#A586FC"/>
</g>
<path d="M323.318 111.556H350.908L335.047 134.847L353.592 135.198L314.668 181.268L324.099 146.143H306.833L323.318 111.556Z" fill="url(#paint0_linear_240_3163)"/>
</g>
<defs>
<filter id="filter0_f_240_3163" x="0" y="0" width="357.592" height="185.268" filterUnits="userSpaceOnUse" color-interpolation-filters="sRGB">
<feFlood flood-opacity="0" result="BackgroundImageFix"/>
<feBlend mode="normal" in="SourceGraphic" in2="BackgroundImageFix" result="shape"/>
<feGaussianBlur stdDeviation="2" result="effect1_foregroundBlur_240_3163"/>
</filter>
<filter id="filter1_f_240_3163" x="38.481" y="42.7068" width="94.9851" height="92.9358" filterUnits="userSpaceOnUse" color-interpolation-filters="sRGB">
<feFlood flood-opacity="0" result="BackgroundImageFix"/>
<feBlend mode="normal" in="SourceGraphic" in2="BackgroundImageFix" result="shape"/>
<feGaussianBlur stdDeviation="10" result="effect1_foregroundBlur_240_3163"/>
</filter>
<linearGradient id="paint0_linear_240_3163" x1="325.911" y1="146.412" x2="304.069" y2="138.405" gradientUnits="userSpaceOnUse">
<stop stop-color="#FFD100"/>
<stop offset="1" stop-color="#FFF0AA"/>
</linearGradient>
</defs>
</svg>
