<svg width="224" height="207" viewBox="0 0 224 207" fill="none" xmlns="http://www.w3.org/2000/svg">
<g filter="url(#filter0_f_240_2696)">
<path d="M182.339 124V200.792" stroke="#42A0F0" stroke-width="6" stroke-linecap="round"/>
<path d="M182.185 142.771L195.41 129.119" stroke="#42A0F0" stroke-width="6" stroke-linecap="round"/>
<path d="M182.185 142.771L168.533 129.119" stroke="#42A0F0" stroke-width="6" stroke-linecap="round"/>
<path d="M182.185 183.727L195.41 197.379" stroke="#42A0F0" stroke-width="6" stroke-linecap="round"/>
<path d="M182.185 183.727L168.533 197.379" stroke="#42A0F0" stroke-width="6" stroke-linecap="round"/>
<path d="M215.407 143.516L148.903 181.912" stroke="#42A0F0" stroke-width="6" stroke-linecap="round"/>
<path d="M199.074 152.769L217.51 157.396" stroke="#42A0F0" stroke-width="6" stroke-linecap="round"/>
<path d="M199.074 152.768L204.071 134.12" stroke="#42A0F0" stroke-width="6" stroke-linecap="round"/>
<path d="M163.605 173.247L158.395 191.526" stroke="#42A0F0" stroke-width="6" stroke-linecap="round"/>
<path d="M163.605 173.247L144.956 168.25" stroke="#42A0F0" stroke-width="6" stroke-linecap="round"/>
<path d="M215.04 181.912L148.536 143.516" stroke="#42A0F0" stroke-width="6" stroke-linecap="round"/>
<path d="M198.86 172.394L204.071 190.673" stroke="#42A0F0" stroke-width="6" stroke-linecap="round"/>
<path d="M198.86 172.394L217.509 167.397" stroke="#42A0F0" stroke-width="6" stroke-linecap="round"/>
<path d="M163.391 151.916L144.956 156.543" stroke="#42A0F0" stroke-width="6" stroke-linecap="round"/>
<path d="M163.391 151.916L158.394 133.267" stroke="#42A0F0" stroke-width="6" stroke-linecap="round"/>
<path d="M108.339 6V82.792" stroke="#42A0F0" stroke-width="6" stroke-linecap="round"/>
<path d="M108.185 24.771L121.41 11.119" stroke="#42A0F0" stroke-width="6" stroke-linecap="round"/>
<path d="M108.185 24.771L94.5332 11.119" stroke="#42A0F0" stroke-width="6" stroke-linecap="round"/>
<path d="M108.185 65.7271L121.41 79.3791" stroke="#42A0F0" stroke-width="6" stroke-linecap="round"/>
<path d="M108.185 65.7271L94.5332 79.3791" stroke="#42A0F0" stroke-width="6" stroke-linecap="round"/>
<path d="M141.407 25.5164L74.9034 63.9124" stroke="#42A0F0" stroke-width="6" stroke-linecap="round"/>
<path d="M125.074 34.7685L143.51 39.3957" stroke="#42A0F0" stroke-width="6" stroke-linecap="round"/>
<path d="M125.074 34.7685L130.071 16.1195" stroke="#42A0F0" stroke-width="6" stroke-linecap="round"/>
<path d="M89.6055 55.2466L84.395 73.5258" stroke="#42A0F0" stroke-width="6" stroke-linecap="round"/>
<path d="M89.6053 55.2466L70.9563 50.2496" stroke="#42A0F0" stroke-width="6" stroke-linecap="round"/>
<path d="M141.04 63.9124L74.5357 25.5164" stroke="#42A0F0" stroke-width="6" stroke-linecap="round"/>
<path d="M124.86 54.3936L130.071 72.6728" stroke="#42A0F0" stroke-width="6" stroke-linecap="round"/>
<path d="M124.86 54.3936L143.509 49.3966" stroke="#42A0F0" stroke-width="6" stroke-linecap="round"/>
<path d="M89.3911 33.9155L70.9556 38.5427" stroke="#42A0F0" stroke-width="6" stroke-linecap="round"/>
<path d="M89.3913 33.9155L84.3943 15.2665" stroke="#42A0F0" stroke-width="6" stroke-linecap="round"/>
<path d="M44.3394 124L44.3394 200.792" stroke="#42A0F0" stroke-width="6" stroke-linecap="round"/>
<path d="M44.1851 142.771L57.4101 129.119" stroke="#42A0F0" stroke-width="6" stroke-linecap="round"/>
<path d="M44.1852 142.771L30.5332 129.119" stroke="#42A0F0" stroke-width="6" stroke-linecap="round"/>
<path d="M44.1851 183.727L57.4101 197.379" stroke="#42A0F0" stroke-width="6" stroke-linecap="round"/>
<path d="M44.1852 183.727L30.5332 197.379" stroke="#42A0F0" stroke-width="6" stroke-linecap="round"/>
<path d="M77.4072 143.516L10.9034 181.912" stroke="#42A0F0" stroke-width="6" stroke-linecap="round"/>
<path d="M61.0745 152.769L79.51 157.396" stroke="#42A0F0" stroke-width="6" stroke-linecap="round"/>
<path d="M61.0743 152.768L66.0713 134.12" stroke="#42A0F0" stroke-width="6" stroke-linecap="round"/>
<path d="M25.6055 173.247L20.395 191.526" stroke="#42A0F0" stroke-width="6" stroke-linecap="round"/>
<path d="M25.6053 173.247L6.95632 168.25" stroke="#42A0F0" stroke-width="6" stroke-linecap="round"/>
<path d="M77.0396 181.912L10.5357 143.516" stroke="#42A0F0" stroke-width="6" stroke-linecap="round"/>
<path d="M60.8601 172.394L66.0706 190.673" stroke="#42A0F0" stroke-width="6" stroke-linecap="round"/>
<path d="M60.8603 172.394L79.5093 167.397" stroke="#42A0F0" stroke-width="6" stroke-linecap="round"/>
<path d="M25.3911 151.916L6.95563 156.543" stroke="#42A0F0" stroke-width="6" stroke-linecap="round"/>
<path d="M25.3913 151.916L20.3943 133.267" stroke="#42A0F0" stroke-width="6" stroke-linecap="round"/>
</g>
<defs>
<filter id="filter0_f_240_2696" x="0.955078" y="0" width="222.556" height="206.792" filterUnits="userSpaceOnUse" color-interpolation-filters="sRGB">
<feFlood flood-opacity="0" result="BackgroundImageFix"/>
<feBlend mode="normal" in="SourceGraphic" in2="BackgroundImageFix" result="shape"/>
<feGaussianBlur stdDeviation="1.5" result="effect1_foregroundBlur_240_2696"/>
</filter>
</defs>
</svg>
