<svg width="437" height="382" viewBox="0 0 437 382" fill="none" xmlns="http://www.w3.org/2000/svg">
<g filter="url(#filter0_f_240_4333)">
<path d="M139.979 204.359C140.695 204.377 147.961 229.607 147.961 239.411C147.961 249.215 144.387 257.164 139.979 257.164C135.571 257.164 131.997 249.216 131.997 239.412C131.997 229.608 139.263 204.342 139.979 204.359Z" fill="#42A0F0"/>
<path d="M136.122 242.411C137.288 242.768 138.824 241.125 139.553 238.742C140.282 236.359 139.927 234.138 138.761 233.782C137.595 233.425 136.059 235.068 135.33 237.451C134.601 239.834 134.956 242.055 136.122 242.411Z" fill="white"/>
<path d="M195.37 204.359C196.086 204.377 203.352 229.607 203.352 239.411C203.352 249.215 199.778 257.164 195.37 257.164C190.962 257.164 187.388 249.216 187.388 239.412C187.388 229.608 194.654 204.342 195.37 204.359Z" fill="#42A0F0"/>
<path d="M191.513 242.411C192.68 242.768 194.216 241.125 194.944 238.742C195.673 236.359 195.318 234.138 194.152 233.782C192.986 233.425 191.45 235.068 190.721 237.451C189.993 239.834 190.347 242.055 191.513 242.411Z" fill="white"/>
<path d="M254.797 204.359C255.513 204.377 262.779 229.607 262.779 239.411C262.779 249.215 259.205 257.164 254.797 257.164C250.389 257.164 246.815 249.216 246.815 239.412C246.815 229.608 254.081 204.342 254.797 204.359Z" fill="#42A0F0"/>
<path d="M250.94 242.411C252.106 242.768 253.642 241.125 254.371 238.742C255.099 236.359 254.745 234.138 253.579 233.782C252.412 233.425 250.876 235.068 250.148 237.451C249.419 239.834 249.774 242.055 250.94 242.411Z" fill="white"/>
<path d="M309.684 201.359C310.4 201.377 317.666 226.607 317.666 236.411C317.666 246.215 314.092 254.164 309.684 254.164C305.276 254.164 301.702 246.216 301.702 236.412C301.702 226.608 308.968 201.342 309.684 201.359Z" fill="#42A0F0"/>
<path d="M305.827 239.411C306.994 239.768 308.53 238.125 309.258 235.742C309.987 233.359 309.632 231.138 308.466 230.782C307.3 230.425 305.764 232.068 305.035 234.451C304.307 236.834 304.661 239.055 305.827 239.411Z" fill="white"/>
<path d="M223.336 271.359C224.052 271.377 231.318 296.607 231.318 306.411C231.318 316.215 227.744 324.164 223.336 324.164C218.928 324.164 215.354 316.216 215.354 306.412C215.354 296.608 222.62 271.342 223.336 271.359Z" fill="#42A0F0"/>
<path d="M219.479 309.411C220.645 309.768 222.181 308.125 222.91 305.742C223.639 303.359 223.284 301.138 222.118 300.782C220.951 300.425 219.415 302.068 218.687 304.451C217.958 306.834 218.313 309.055 219.479 309.411Z" fill="white"/>
<path d="M282.762 271.359C283.478 271.377 290.744 296.607 290.744 306.411C290.744 316.215 287.17 324.164 282.762 324.164C278.354 324.164 274.78 316.216 274.78 306.412C274.78 296.608 282.046 271.342 282.762 271.359Z" fill="#42A0F0"/>
<path d="M278.905 309.411C280.071 309.768 281.607 308.125 282.336 305.742C283.065 303.359 282.71 301.138 281.544 300.782C280.377 300.425 278.842 302.068 278.113 304.451C277.384 306.834 277.739 309.055 278.905 309.411Z" fill="white"/>
<path d="M345.684 271.359C346.4 271.377 353.666 296.607 353.666 306.411C353.666 316.215 350.092 324.164 345.684 324.164C341.276 324.164 337.702 316.216 337.702 306.412C337.702 296.608 344.968 271.342 345.684 271.359Z" fill="#42A0F0"/>
<path d="M341.827 309.411C342.994 309.768 344.53 308.125 345.258 305.742C345.987 303.359 345.632 301.138 344.466 300.782C343.3 300.425 341.764 302.068 341.035 304.451C340.307 306.834 340.661 309.055 341.827 309.411Z" fill="white"/>
<path d="M163.91 274.359C164.626 274.377 171.892 299.607 171.892 309.411C171.892 319.215 168.318 327.164 163.91 327.164C159.502 327.164 155.928 319.216 155.928 309.412C155.928 299.608 163.194 274.342 163.91 274.359Z" fill="#42A0F0"/>
<path d="M160.053 312.411C161.219 312.768 162.755 311.125 163.484 308.742C164.213 306.359 163.858 304.138 162.692 303.782C161.525 303.425 159.989 305.068 159.261 307.451C158.532 309.834 158.887 312.055 160.053 312.411Z" fill="white"/>
<path d="M107.979 271.359C108.695 271.377 115.961 296.607 115.961 306.411C115.961 316.215 112.387 324.164 107.979 324.164C103.571 324.164 99.9971 316.216 99.9971 306.412C99.9971 296.608 107.263 271.342 107.979 271.359Z" fill="#42A0F0"/>
<path d="M104.122 309.411C105.288 309.768 106.824 308.125 107.553 305.742C108.282 303.359 107.927 301.138 106.761 300.782C105.595 300.425 104.059 302.068 103.33 304.451C102.601 306.834 102.956 309.055 104.122 309.411Z" fill="white"/>
<path d="M139.979 324.359C140.695 324.377 147.961 349.607 147.961 359.411C147.961 369.215 144.387 377.164 139.979 377.164C135.571 377.164 131.997 369.216 131.997 359.412C131.997 349.608 139.263 324.342 139.979 324.359Z" fill="#42A0F0"/>
<path d="M136.122 362.411C137.288 362.768 138.824 361.125 139.553 358.742C140.282 356.359 139.927 354.138 138.761 353.782C137.595 353.425 136.059 355.068 135.33 357.451C134.601 359.834 134.956 362.055 136.122 362.411Z" fill="white"/>
<path d="M195.37 324.359C196.086 324.377 203.352 349.607 203.352 359.411C203.352 369.215 199.778 377.164 195.37 377.164C190.962 377.164 187.388 369.216 187.388 359.412C187.388 349.608 194.654 324.342 195.37 324.359Z" fill="#42A0F0"/>
<path d="M191.513 362.411C192.68 362.768 194.216 361.125 194.944 358.742C195.673 356.359 195.318 354.138 194.152 353.782C192.986 353.425 191.45 355.068 190.721 357.451C189.993 359.834 190.347 362.055 191.513 362.411Z" fill="white"/>
<path d="M254.797 324.359C255.513 324.377 262.779 349.607 262.779 359.411C262.779 369.215 259.205 377.164 254.797 377.164C250.389 377.164 246.815 369.216 246.815 359.412C246.815 349.608 254.081 324.342 254.797 324.359Z" fill="#42A0F0"/>
<path d="M250.94 362.411C252.106 362.768 253.642 361.125 254.371 358.742C255.099 356.359 254.745 354.138 253.579 353.782C252.412 353.425 250.876 355.068 250.148 357.451C249.419 359.834 249.774 362.055 250.94 362.411Z" fill="white"/>
<path d="M309.684 324.359C310.4 324.377 317.666 349.607 317.666 359.411C317.666 369.215 314.092 377.164 309.684 377.164C305.276 377.164 301.702 369.216 301.702 359.412C301.702 349.608 308.968 324.342 309.684 324.359Z" fill="#42A0F0"/>
<path d="M305.827 362.411C306.994 362.768 308.53 361.125 309.258 358.742C309.987 356.359 309.632 354.138 308.466 353.782C307.3 353.425 305.764 355.068 305.035 357.451C304.307 359.834 304.661 362.055 305.827 362.411Z" fill="white"/>
<path d="M107.268 6.72324C114.278 6.72148 121.27 7.42975 128.137 8.83723C141.39 11.5669 153.974 16.8889 165.164 24.4972C180.667 35.0049 193.053 49.4947 201.021 66.4437C208.989 83.3927 212.244 102.175 210.444 120.817C208.644 139.459 201.856 157.271 190.793 172.383C179.73 187.495 164.801 199.347 147.574 206.695C141.312 209.356 134.8 211.388 128.136 212.76C113.685 215.69 98.7754 215.508 84.4005 212.224C70.0257 208.941 56.5155 202.632 44.77 193.718C33.0244 184.804 23.3132 173.489 16.2832 160.528C9.25319 147.566 5.06578 133.256 3.99992 118.549C15.3314 121.201 27.1023 121.372 38.5059 119.049C48.7389 116.954 58.4592 112.863 67.1119 107.012C79.9742 98.329 90.0422 86.1018 96.0959 71.8122C98.1414 66.9727 99.7027 61.9425 100.757 56.7952C103.004 45.7666 102.921 34.3899 100.513 23.3952C99.3016 17.8975 97.5102 12.5439 95.1689 7.42424C99.185 6.95689 103.225 6.72282 107.268 6.72324Z" fill="#713FFD"/>
<g filter="url(#filter1_f_240_4333)">
<path d="M177.339 38.8963C154.095 17.9668 123.644 13.8915 109.325 29.7939C95.0065 45.6964 102.242 75.5545 125.487 96.484C148.732 117.414 179.182 121.489 193.501 105.586C207.82 89.6839 200.584 59.8258 177.339 38.8963Z" fill="#A586FC"/>
</g>
<g filter="url(#filter2_d_240_4333)">
<path d="M306.346 282.002H114.914C96.3436 281.988 78.4986 274.791 65.1147 261.917C51.7308 249.043 43.8457 231.491 43.1102 212.936C42.3747 194.38 48.8457 176.259 61.1687 162.366C73.4916 148.473 90.711 139.886 109.222 138.402C111.862 119.762 120.279 102.419 133.29 88.8122C146.3 75.2055 163.249 66.0202 181.753 62.5486C200.256 59.077 219.382 61.4938 236.44 69.459C253.498 77.4242 267.629 90.5368 276.846 106.952C293.751 101.1 312.016 100.417 329.311 104.988C346.606 109.559 362.147 119.179 373.953 132.619C385.758 146.06 393.293 162.712 395.595 180.452C397.897 198.192 394.863 216.216 386.88 232.225C382.195 246.69 373.048 259.299 360.752 268.242C348.456 277.184 333.642 282.002 318.438 282.002H306.346Z" fill="url(#paint0_linear_240_4333)"/>
<path d="M318.438 281.002C326.158 281.002 333.749 279.769 340.999 277.338C348.01 274.987 354.591 271.556 360.561 267.141C366.463 262.777 371.636 257.549 375.937 251.603C380.291 245.582 383.653 238.959 385.928 231.917L385.952 231.845L385.986 231.777C389.012 225.73 391.342 219.333 392.912 212.763C394.527 206.002 395.346 199.017 395.346 192.002C395.346 185.963 394.738 179.928 393.538 174.064C392.369 168.35 390.624 162.73 388.353 157.359C386.122 152.086 383.362 147 380.147 142.242C376.963 137.529 373.307 133.097 369.279 129.069C365.251 125.042 360.82 121.385 356.107 118.201C351.349 114.987 346.262 112.226 340.989 109.995C335.618 107.724 329.998 105.979 324.284 104.81C318.421 103.61 312.386 103.002 306.346 103.002C296.347 103.002 286.532 104.647 277.173 107.893L276.384 108.167L275.974 107.438C268.358 93.8965 257.28 82.5239 243.938 74.5501C237.19 70.5175 229.941 67.4012 222.392 65.2879C214.603 63.1077 206.513 62.0022 198.346 62.0022C187.362 62.0022 176.639 63.9792 166.476 67.8782C156.658 71.6449 147.651 77.0859 139.706 84.0502C131.807 90.9744 125.252 99.1444 120.222 108.333C115.069 117.747 111.702 127.909 110.212 138.537L110.101 139.333L109.3 139.395C100.342 140.096 91.7229 142.455 83.6828 146.405C75.8703 150.244 68.8942 155.436 62.948 161.837C50.7298 174.989 44.001 192.125 44.001 210.089C44.001 219.663 45.8757 228.949 49.5732 237.691C51.3504 241.893 53.5501 245.945 56.1112 249.736C58.6482 253.491 61.5617 257.023 64.7709 260.232C67.9801 263.441 71.5113 266.355 75.2665 268.892C79.0574 271.453 83.11 273.652 87.3116 275.429C96.0534 279.127 105.34 281.002 114.914 281.002H306.346H318.438ZM318.438 282.002H306.346H114.914C75.1976 282.002 43.001 249.805 43.001 210.089C43.001 172.288 72.1656 141.299 109.222 138.398C115.351 94.6596 152.918 61.0022 198.346 61.0022C232.048 61.0022 261.423 79.5254 276.846 106.948C286.088 103.743 296.013 102.002 306.346 102.002C356.052 102.002 396.346 142.297 396.346 192.002C396.346 206.458 392.937 220.121 386.88 232.225C377.545 261.11 350.432 282.002 318.438 282.002Z" fill="white" fill-opacity="0.5"/>
</g>
</g>
<defs>
<filter id="filter0_f_240_4333" x="0" y="2.72327" width="400.346" height="378.441" filterUnits="userSpaceOnUse" color-interpolation-filters="sRGB">
<feFlood flood-opacity="0" result="BackgroundImageFix"/>
<feBlend mode="normal" in="SourceGraphic" in2="BackgroundImageFix" result="shape"/>
<feGaussianBlur stdDeviation="2" result="effect1_foregroundBlur_240_4333"/>
</filter>
<filter id="filter1_f_240_4333" x="81.9736" y="0.0933838" width="138.879" height="135.194" filterUnits="userSpaceOnUse" color-interpolation-filters="sRGB">
<feFlood flood-opacity="0" result="BackgroundImageFix"/>
<feBlend mode="normal" in="SourceGraphic" in2="BackgroundImageFix" result="shape"/>
<feGaussianBlur stdDeviation="10" result="effect1_foregroundBlur_240_4333"/>
</filter>
<filter id="filter2_d_240_4333" x="23.001" y="33.0022" width="413.345" height="281" filterUnits="userSpaceOnUse" color-interpolation-filters="sRGB">
<feFlood flood-opacity="0" result="BackgroundImageFix"/>
<feColorMatrix in="SourceAlpha" type="matrix" values="0 0 0 0 0 0 0 0 0 0 0 0 0 0 0 0 0 0 127 0" result="hardAlpha"/>
<feOffset dx="10" dy="2"/>
<feGaussianBlur stdDeviation="15"/>
<feColorMatrix type="matrix" values="0 0 0 0 0.501961 0 0 0 0 0.501961 0 0 0 0 0.501961 0 0 0 0.302 0"/>
<feBlend mode="normal" in2="BackgroundImageFix" result="effect1_dropShadow_240_4333"/>
<feBlend mode="normal" in="SourceGraphic" in2="effect1_dropShadow_240_4333" result="shape"/>
</filter>
<linearGradient id="paint0_linear_240_4333" x1="219.699" y1="61.0048" x2="322.342" y2="309.169" gradientUnits="userSpaceOnUse">
<stop stop-color="white" stop-opacity="0.604"/>
<stop offset="1" stop-color="white" stop-opacity="0.2"/>
</linearGradient>
</defs>
</svg>
