<svg width="351" height="186" viewBox="0 0 351 186" fill="none" xmlns="http://www.w3.org/2000/svg">
<g filter="url(#filter0_f_240_3102)">
<path d="M128.687 87.6389C128.687 87.6389 265.776 88.9529 295.457 80.3329C325.138 71.7129 325.1 26.9749 295.457 15.9469C265.814 4.91893 255.683 44.3379 255.683 44.3379" stroke="#D0D0D0" stroke-width="20" stroke-linecap="round"/>
<path d="M162.709 134.656C162.709 134.656 263.317 125.566 307.67 134.656C352.023 143.746 337.9 169.823 316.88 171.015C295.86 172.207 276.463 158.395 276.463 158.395" stroke="#D0D0D0" stroke-width="20" stroke-linecap="round"/>
<path d="M53.8462 31.589C53.8462 31.589 84.3652 34.119 120.528 34.119C156.691 34.119 205.708 29.373 205.708 29.373" stroke="#D0D0D0" stroke-width="20" stroke-linecap="round"/>
<path d="M21.818 128.089C23.418 128.107 39.636 153.43 39.636 163.271C39.636 167.997 37.7588 172.529 34.4172 175.87C31.0757 179.212 26.5436 181.089 21.818 181.089C17.0924 181.089 12.5603 179.212 9.21877 175.87C5.87725 172.529 4 167.997 4 163.271C4 153.431 20.219 128.071 21.818 128.089Z" fill="#42A0F0"/>
<path d="M8.23313 169.93C10.0135 170.475 12.2763 168.236 13.2871 164.93C14.2979 161.623 13.674 158.502 11.8936 157.958C10.1132 157.413 7.85049 159.652 6.83968 162.958C5.82886 166.265 6.45273 169.386 8.23313 169.93Z" fill="white"/>
<path d="M107.818 128.089C109.418 128.107 125.636 153.43 125.636 163.271C125.636 167.997 123.759 172.529 120.417 175.87C117.076 179.212 112.544 181.089 107.818 181.089C103.092 181.089 98.5603 179.212 95.2188 175.87C91.8772 172.529 90 167.997 90 163.271C90 153.431 106.219 128.071 107.818 128.089Z" fill="#42A0F0"/>
<path d="M94.2331 169.93C96.0135 170.475 98.2763 168.236 99.2871 164.93C100.298 161.623 99.674 158.502 97.8936 157.958C96.1132 157.413 93.8505 159.652 92.8397 162.958C91.8289 166.265 92.4527 169.386 94.2331 169.93Z" fill="white"/>
<path d="M63.818 63.0889C65.418 63.1069 81.636 88.4299 81.636 98.2709C81.636 102.997 79.7588 107.529 76.4172 110.87C73.0757 114.212 68.5436 116.089 63.818 116.089C59.0924 116.089 54.5603 114.212 51.2188 110.87C47.8772 107.529 46 102.997 46 98.2709C46 88.4309 62.219 63.0709 63.818 63.0889Z" fill="#42A0F0"/>
<path d="M50.2331 104.93C52.0135 105.475 54.2763 103.236 55.2871 99.9296C56.2979 96.6233 55.674 93.5018 53.8936 92.9575C52.1132 92.4132 49.8505 94.6522 48.8397 97.9584C47.8289 101.265 48.4527 104.386 50.2331 104.93Z" fill="white"/>
</g>
<defs>
<filter id="filter0_f_240_3102" x="0" y="0" width="350.825" height="185.089" filterUnits="userSpaceOnUse" color-interpolation-filters="sRGB">
<feFlood flood-opacity="0" result="BackgroundImageFix"/>
<feBlend mode="normal" in="SourceGraphic" in2="BackgroundImageFix" result="shape"/>
<feGaussianBlur stdDeviation="2" result="effect1_foregroundBlur_240_3102"/>
</filter>
</defs>
</svg>
