<svg width="466" height="400" viewBox="0 0 466 400" fill="none" xmlns="http://www.w3.org/2000/svg">
<g filter="url(#filter0_f_240_3642)">
<path d="M323.804 192.961C319.44 165.024 299.339 143.415 267.428 143.006C235.517 142.598 224.931 164.974 224.931 164.974" stroke="#9832E1" stroke-width="14.0073" stroke-linecap="round"/>
<path d="M334.05 200.323C332.666 181.762 331.442 155.574 298.174 138.549C264.905 121.525 228.24 134.595 214.746 160.048" stroke="#486BF3" stroke-width="14" stroke-linecap="round" stroke-linejoin="round"/>
<path d="M344.296 207.686C350.95 169.41 326.094 131.246 284.175 122.339C242.256 113.432 219.833 132.177 205.42 152.967" stroke="#74D248" stroke-width="14.0028" stroke-linecap="round"/>
<path d="M354.099 215.482C363.677 167.857 332.835 121.485 285.209 111.906C237.584 102.328 207.477 125.783 195.814 146.808" stroke="#EDF000" stroke-width="14.0056" stroke-linecap="round"/>
<path d="M361.492 224.629C377.383 177.888 349.107 123.529 298.558 106.564C248.009 89.5989 205.766 106.315 184.206 145.882" stroke="#F18431" stroke-width="14" stroke-linecap="round"/>
<path d="M366.362 236.395C391.516 183.784 365.994 127.974 313.383 102.821C260.771 77.6672 198.924 90.4853 173.771 143.097" stroke="#DD3930" stroke-width="13" stroke-linecap="round"/>
</g>
<g filter="url(#filter1_f_240_3642)">
<g filter="url(#filter2_d_240_3642)">
<path d="M283.345 367.473H91.913C73.3426 367.459 55.4976 360.262 42.1137 347.388C28.7298 334.514 20.8447 316.962 20.1092 298.406C19.3737 279.85 25.8448 261.729 38.1677 247.837C50.4906 233.944 67.71 225.357 86.221 223.873C88.8608 205.233 97.2781 187.89 110.289 174.283C123.299 160.676 140.248 151.491 158.752 148.019C177.255 144.548 196.381 146.965 213.439 154.93C230.497 162.895 244.628 176.008 253.845 192.423C270.75 186.571 289.015 185.887 306.311 190.459C323.606 195.031 339.148 204.651 350.953 218.092C362.759 231.533 370.293 248.186 372.594 265.926C374.896 283.667 371.861 301.691 363.877 317.7C359.192 332.163 350.045 344.771 337.749 353.713C325.453 362.655 310.641 367.472 295.437 367.473H283.345Z" fill="url(#paint0_linear_240_3642)"/>
<path d="M295.437 366.473C303.156 366.473 310.746 365.24 317.996 362.809C325.006 360.458 331.587 357.028 337.557 352.613C343.458 348.249 348.631 343.021 352.932 337.075C357.287 331.055 360.649 324.433 362.925 317.392L362.949 317.32L362.983 317.252C366.01 311.204 368.341 304.806 369.911 298.236C371.526 291.476 372.345 284.49 372.345 277.472C372.345 271.433 371.737 265.398 370.537 259.535C369.368 253.821 367.623 248.201 365.352 242.83C363.121 237.557 360.36 232.47 357.146 227.713C353.962 223 350.305 218.568 346.278 214.54C342.25 210.512 337.818 206.856 333.105 203.672C328.347 200.457 323.261 197.697 317.988 195.466C312.617 193.195 306.997 191.45 301.283 190.281C295.42 189.081 289.384 188.472 283.345 188.472C273.346 188.472 263.531 190.118 254.172 193.364L253.383 193.638L252.973 192.909C245.357 179.367 234.279 167.995 220.937 160.021C214.189 155.988 206.94 152.872 199.391 150.759C191.602 148.578 183.512 147.473 175.345 147.473C164.361 147.473 153.638 149.45 143.475 153.349C133.657 157.116 124.65 162.557 116.705 169.521C108.806 176.445 102.251 184.615 97.2213 193.804C92.0685 203.218 88.7006 213.38 87.2113 224.008L87.0998 224.803L86.299 224.866C77.3408 225.567 68.7219 227.926 60.6818 231.876C52.8694 235.715 45.8932 240.907 39.947 247.307C27.7289 260.46 21 277.596 21 295.56C21 305.133 22.8748 314.42 26.5723 323.162C28.3495 327.363 30.5491 331.416 33.1102 335.207C35.6472 338.962 38.5607 342.493 41.7699 345.703C44.9791 348.912 48.5104 351.825 52.2655 354.362C56.0565 356.923 60.109 359.123 64.3106 360.9C73.0525 364.598 82.3391 366.473 91.9127 366.473H283.345H295.437ZM295.437 367.473H283.345H91.9127C52.1966 367.473 20 335.276 20 295.56C20 257.759 49.1646 226.77 86.221 223.869C92.3504 180.13 129.917 146.473 175.345 146.473C209.048 146.473 238.422 164.996 253.845 192.419C263.087 189.214 273.012 187.472 283.345 187.472C333.051 187.472 373.345 227.767 373.345 277.472C373.345 291.932 369.936 305.594 363.877 317.7C354.54 346.582 327.427 367.473 295.437 367.473Z" fill="white" fill-opacity="0.5"/>
</g>
</g>
<defs>
<filter id="filter0_f_240_3642" x="163.27" y="79.9185" width="223.377" height="166.978" filterUnits="userSpaceOnUse" color-interpolation-filters="sRGB">
<feFlood flood-opacity="0" result="BackgroundImageFix"/>
<feBlend mode="normal" in="SourceGraphic" in2="BackgroundImageFix" result="shape"/>
<feGaussianBlur stdDeviation="2" result="effect1_foregroundBlur_240_3642"/>
</filter>
<filter id="filter1_f_240_3642" x="16" y="142.473" width="361.345" height="229" filterUnits="userSpaceOnUse" color-interpolation-filters="sRGB">
<feFlood flood-opacity="0" result="BackgroundImageFix"/>
<feBlend mode="normal" in="SourceGraphic" in2="BackgroundImageFix" result="shape"/>
<feGaussianBlur stdDeviation="2" result="effect1_foregroundBlur_240_3642"/>
</filter>
<filter id="filter2_d_240_3642" x="0" y="118.473" width="413.345" height="281" filterUnits="userSpaceOnUse" color-interpolation-filters="sRGB">
<feFlood flood-opacity="0" result="BackgroundImageFix"/>
<feColorMatrix in="SourceAlpha" type="matrix" values="0 0 0 0 0 0 0 0 0 0 0 0 0 0 0 0 0 0 127 0" result="hardAlpha"/>
<feOffset dx="10" dy="2"/>
<feGaussianBlur stdDeviation="15"/>
<feColorMatrix type="matrix" values="0 0 0 0 0.501961 0 0 0 0 0.501961 0 0 0 0 0.501961 0 0 0 0.302 0"/>
<feBlend mode="normal" in2="BackgroundImageFix" result="effect1_dropShadow_240_3642"/>
<feBlend mode="normal" in="SourceGraphic" in2="effect1_dropShadow_240_3642" result="shape"/>
</filter>
<linearGradient id="paint0_linear_240_3642" x1="196.698" y1="146.476" x2="299.341" y2="394.639" gradientUnits="userSpaceOnUse">
<stop stop-color="white" stop-opacity="0.604"/>
<stop offset="1" stop-color="white" stop-opacity="0.2"/>
</linearGradient>
</defs>
</svg>
