<svg width="366" height="195" viewBox="0 0 366 195" fill="none" xmlns="http://www.w3.org/2000/svg">
<g filter="url(#filter0_f_240_3147)">
<path d="M143.687 87.6389C143.687 87.6389 280.776 88.9529 310.457 80.3329C340.138 71.7129 340.1 26.9749 310.457 15.9469C280.814 4.91893 270.683 44.3379 270.683 44.3379" stroke="#D0D0D0" stroke-width="20" stroke-linecap="round"/>
<path d="M177.709 134.656C177.709 134.656 278.317 125.566 322.67 134.656C367.023 143.746 352.9 169.823 331.88 171.015C310.86 172.207 291.463 158.395 291.463 158.395" stroke="#D0D0D0" stroke-width="20" stroke-linecap="round"/>
<path d="M68.8462 31.589C68.8462 31.589 99.3652 34.119 135.528 34.119C171.691 34.119 220.708 29.373 220.708 29.373" stroke="#D0D0D0" stroke-width="20" stroke-linecap="round"/>
<path d="M70.293 190.931C101.036 190.931 125.959 165.882 125.959 134.982C125.959 104.082 101.036 79.033 70.293 79.033C39.5495 79.033 14.627 104.082 14.627 134.982C14.627 165.882 39.5495 190.931 70.293 190.931Z" fill="#FA9E42"/>
<g filter="url(#filter1_f_240_3147)">
<path d="M66.2704 127.026C84.771 117.199 95.1188 100.478 89.3827 89.6791C83.6467 78.8797 63.999 78.091 45.4984 87.9175C26.9977 97.744 16.65 114.465 22.386 125.264C28.122 136.063 47.7697 136.852 66.2704 127.026Z" fill="#F8E36F"/>
</g>
</g>
<defs>
<filter id="filter0_f_240_3147" x="10.627" y="0" width="355.198" height="194.931" filterUnits="userSpaceOnUse" color-interpolation-filters="sRGB">
<feFlood flood-opacity="0" result="BackgroundImageFix"/>
<feBlend mode="normal" in="SourceGraphic" in2="BackgroundImageFix" result="shape"/>
<feGaussianBlur stdDeviation="2" result="effect1_foregroundBlur_240_3147"/>
</filter>
<filter id="filter1_f_240_3147" x="0.803711" y="61.0339" width="110.162" height="92.875" filterUnits="userSpaceOnUse" color-interpolation-filters="sRGB">
<feFlood flood-opacity="0" result="BackgroundImageFix"/>
<feBlend mode="normal" in="SourceGraphic" in2="BackgroundImageFix" result="shape"/>
<feGaussianBlur stdDeviation="10" result="effect1_foregroundBlur_240_3147"/>
</filter>
</defs>
</svg>
