<svg width="414" height="328" viewBox="0 0 414 328" fill="none" xmlns="http://www.w3.org/2000/svg">
<g filter="url(#filter0_f_240_4475)">
<path d="M211.43 230.186C211.43 230.186 281.556 232.346 309.456 224.244C339.137 215.624 339.099 170.886 309.456 159.858C279.813 148.83 269.682 188.249 269.682 188.249" stroke="#D0D0D0" stroke-width="20" stroke-linecap="round"/>
<path d="M168.13 273.848C168.13 273.848 198.318 268.478 242.671 277.567C287.024 286.656 272.901 312.734 251.881 313.926C230.861 315.118 211.464 301.306 211.464 301.306" stroke="#D0D0D0" stroke-width="20" stroke-linecap="round"/>
<path d="M311.846 277.5H351.846" stroke="#D0D0D0" stroke-width="20" stroke-linecap="round"/>
<path d="M132.763 262.292V290.5" stroke="#42A0F0" stroke-width="2" stroke-linecap="round"/>
<path d="M132.708 269.188L137.566 264.173" stroke="#42A0F0" stroke-width="2" stroke-linecap="round"/>
<path d="M132.707 269.188L127.692 264.173" stroke="#42A0F0" stroke-width="2" stroke-linecap="round"/>
<path d="M132.708 284.231L137.566 289.246" stroke="#42A0F0" stroke-width="2" stroke-linecap="round"/>
<path d="M132.707 284.231L127.692 289.246" stroke="#42A0F0" stroke-width="2" stroke-linecap="round"/>
<path d="M144.911 269.461L120.482 283.565" stroke="#42A0F0" stroke-width="2" stroke-linecap="round"/>
<path d="M138.91 272.86L145.682 274.56" stroke="#42A0F0" stroke-width="2" stroke-linecap="round"/>
<path d="M138.91 272.86L140.746 266.01" stroke="#42A0F0" stroke-width="2" stroke-linecap="round"/>
<path d="M125.883 280.382L123.969 287.096" stroke="#42A0F0" stroke-width="2" stroke-linecap="round"/>
<path d="M125.883 280.382L119.032 278.546" stroke="#42A0F0" stroke-width="2" stroke-linecap="round"/>
<path d="M144.775 283.565L120.347 269.461" stroke="#42A0F0" stroke-width="2" stroke-linecap="round"/>
<path d="M138.832 280.068L140.746 286.783" stroke="#42A0F0" stroke-width="2" stroke-linecap="round"/>
<path d="M138.832 280.068L145.682 278.232" stroke="#42A0F0" stroke-width="2" stroke-linecap="round"/>
<path d="M125.804 272.547L119.032 274.246" stroke="#42A0F0" stroke-width="2" stroke-linecap="round"/>
<path d="M125.804 272.547L123.968 265.696" stroke="#42A0F0" stroke-width="2" stroke-linecap="round"/>
<path d="M48.0093 254.881V307.499" stroke="#42A0F0" stroke-width="4" stroke-linecap="round"/>
<path d="M47.9033 267.743L56.9653 258.389" stroke="#42A0F0" stroke-width="4" stroke-linecap="round"/>
<path d="M47.9033 267.743L38.5493 258.389" stroke="#42A0F0" stroke-width="4" stroke-linecap="round"/>
<path d="M47.9033 295.806L56.9653 305.16" stroke="#42A0F0" stroke-width="4" stroke-linecap="round"/>
<path d="M47.9033 295.806L38.5493 305.16" stroke="#42A0F0" stroke-width="4" stroke-linecap="round"/>
<path d="M70.668 268.254L25.0994 294.563" stroke="#42A0F0" stroke-width="4" stroke-linecap="round"/>
<path d="M59.4759 274.593L72.1077 277.764" stroke="#42A0F0" stroke-width="4" stroke-linecap="round"/>
<path d="M59.4761 274.593L62.8999 261.815" stroke="#42A0F0" stroke-width="4" stroke-linecap="round"/>
<path d="M35.1729 288.624L31.6031 301.149" stroke="#42A0F0" stroke-width="4" stroke-linecap="round"/>
<path d="M35.1731 288.624L22.3953 285.201" stroke="#42A0F0" stroke-width="4" stroke-linecap="round"/>
<path d="M70.416 294.563L24.8475 268.254" stroke="#42A0F0" stroke-width="4" stroke-linecap="round"/>
<path d="M59.3304 288.04L62.9002 300.565" stroke="#42A0F0" stroke-width="4" stroke-linecap="round"/>
<path d="M59.3301 288.04L72.1079 284.616" stroke="#42A0F0" stroke-width="4" stroke-linecap="round"/>
<path d="M35.0273 274.008L22.3955 277.179" stroke="#42A0F0" stroke-width="4" stroke-linecap="round"/>
<path d="M35.0271 274.008L31.6033 261.23" stroke="#42A0F0" stroke-width="4" stroke-linecap="round"/>
<path d="M86.0093 189.881V242.499" stroke="#42A0F0" stroke-width="4" stroke-linecap="round"/>
<path d="M85.9033 202.743L94.9653 193.389" stroke="#42A0F0" stroke-width="4" stroke-linecap="round"/>
<path d="M85.9033 202.743L76.5493 193.389" stroke="#42A0F0" stroke-width="4" stroke-linecap="round"/>
<path d="M85.9033 230.806L94.9653 240.16" stroke="#42A0F0" stroke-width="4" stroke-linecap="round"/>
<path d="M85.9033 230.806L76.5493 240.16" stroke="#42A0F0" stroke-width="4" stroke-linecap="round"/>
<path d="M108.668 203.254L63.0994 229.563" stroke="#42A0F0" stroke-width="4" stroke-linecap="round"/>
<path d="M97.4759 209.593L110.108 212.764" stroke="#42A0F0" stroke-width="4" stroke-linecap="round"/>
<path d="M97.4761 209.593L100.9 196.815" stroke="#42A0F0" stroke-width="4" stroke-linecap="round"/>
<path d="M73.1729 223.624L69.6031 236.149" stroke="#42A0F0" stroke-width="4" stroke-linecap="round"/>
<path d="M73.1731 223.624L60.3953 220.201" stroke="#42A0F0" stroke-width="4" stroke-linecap="round"/>
<path d="M108.416 229.563L62.8475 203.254" stroke="#42A0F0" stroke-width="4" stroke-linecap="round"/>
<path d="M97.3304 223.04L100.9 235.565" stroke="#42A0F0" stroke-width="4" stroke-linecap="round"/>
<path d="M97.3301 223.04L110.108 219.616" stroke="#42A0F0" stroke-width="4" stroke-linecap="round"/>
<path d="M73.0273 209.008L60.3955 212.179" stroke="#42A0F0" stroke-width="4" stroke-linecap="round"/>
<path d="M73.0271 209.008L69.6033 196.23" stroke="#42A0F0" stroke-width="4" stroke-linecap="round"/>
<g filter="url(#filter1_d_240_4475)">
<path d="M283.345 249H91.913C73.3426 248.986 55.4976 241.789 42.1137 228.915C28.7298 216.041 20.8447 198.489 20.1092 179.933C19.3737 161.378 25.8448 143.257 38.1677 129.364C50.4906 115.471 67.71 106.884 86.221 105.4C88.8608 86.7601 97.2781 69.4167 110.289 55.81C123.299 42.2033 140.248 33.018 158.752 29.5464C177.255 26.0748 196.381 28.4916 213.439 36.4568C230.497 44.422 244.628 57.5346 253.845 73.9501C270.75 68.0981 289.015 67.4143 306.311 71.986C323.606 76.5577 339.148 86.1776 350.953 99.6187C362.759 113.06 370.293 129.713 372.594 147.453C374.896 165.194 371.861 183.218 363.877 199.227C359.192 213.691 350.045 226.298 337.749 235.24C325.453 244.182 310.641 248.999 295.437 249H283.345Z" fill="url(#paint0_linear_240_4475)"/>
<path d="M295.437 248C303.156 248 310.746 246.767 317.996 244.336C325.006 241.985 331.587 238.555 337.557 234.14C343.458 229.776 348.631 224.548 352.932 218.602C357.287 212.582 360.649 205.96 362.925 198.919L362.949 198.847L362.983 198.779C366.01 192.731 368.341 186.333 369.911 179.763C371.526 173.003 372.345 166.017 372.345 158.999C372.345 152.96 371.737 146.925 370.537 141.062C369.368 135.348 367.623 129.728 365.352 124.357C363.121 119.084 360.36 113.997 357.146 109.24C353.962 104.527 350.305 100.095 346.278 96.0672C342.25 92.0395 337.818 88.3828 333.105 85.1988C328.347 81.9845 323.261 79.2237 317.988 76.9932C312.617 74.7216 306.997 72.9769 301.283 71.8077C295.42 70.6079 289.384 69.9995 283.345 69.9995C273.346 69.9995 263.531 71.6451 254.172 74.8907L253.383 75.1645L252.973 74.4361C245.357 60.8942 234.279 49.5216 220.937 41.5478C214.189 37.5152 206.94 34.399 199.391 32.2857C191.602 30.1055 183.512 29 175.345 29C164.361 29 153.638 30.977 143.475 34.876C133.657 38.6427 124.65 44.0837 116.705 51.048C108.806 57.9722 102.251 66.1422 97.2213 75.3308C92.0685 84.7451 88.7006 94.9073 87.2113 105.535L87.0998 106.33L86.299 106.393C77.3408 107.094 68.7219 109.453 60.6818 113.403C52.8694 117.242 45.8932 122.434 39.947 128.834C27.7289 141.987 21 159.123 21 177.087C21 186.66 22.8748 195.947 26.5723 204.689C28.3495 208.891 30.5491 212.943 33.1102 216.734C35.6472 220.489 38.5607 224.02 41.7699 227.23C44.9791 230.439 48.5104 233.352 52.2655 235.889C56.0565 238.45 60.109 240.65 64.3106 242.427C73.0525 246.125 82.3391 248 91.9127 248H283.345H295.437ZM295.437 249H283.345H91.9127C52.1966 249 20 216.803 20 177.087C20 139.286 49.1646 108.297 86.221 105.396C92.3504 61.6574 129.917 28 175.345 28C209.048 28 238.422 46.5231 253.845 73.9459C263.087 70.7406 273.012 68.9995 283.345 68.9995C333.051 68.9995 373.345 109.294 373.345 158.999C373.345 173.459 369.936 187.121 363.877 199.227C354.54 228.109 327.427 249 295.437 249Z" fill="white" fill-opacity="0.5"/>
</g>
</g>
<defs>
<filter id="filter0_f_240_4475" x="16" y="24" width="361.345" height="303.999" filterUnits="userSpaceOnUse" color-interpolation-filters="sRGB">
<feFlood flood-opacity="0" result="BackgroundImageFix"/>
<feBlend mode="normal" in="SourceGraphic" in2="BackgroundImageFix" result="shape"/>
<feGaussianBlur stdDeviation="2" result="effect1_foregroundBlur_240_4475"/>
</filter>
<filter id="filter1_d_240_4475" x="0" y="0" width="413.345" height="281" filterUnits="userSpaceOnUse" color-interpolation-filters="sRGB">
<feFlood flood-opacity="0" result="BackgroundImageFix"/>
<feColorMatrix in="SourceAlpha" type="matrix" values="0 0 0 0 0 0 0 0 0 0 0 0 0 0 0 0 0 0 127 0" result="hardAlpha"/>
<feOffset dx="10" dy="2"/>
<feGaussianBlur stdDeviation="15"/>
<feColorMatrix type="matrix" values="0 0 0 0 0.501961 0 0 0 0 0.501961 0 0 0 0 0.501961 0 0 0 0.302 0"/>
<feBlend mode="normal" in2="BackgroundImageFix" result="effect1_dropShadow_240_4475"/>
<feBlend mode="normal" in="SourceGraphic" in2="effect1_dropShadow_240_4475" result="shape"/>
</filter>
<linearGradient id="paint0_linear_240_4475" x1="196.698" y1="28.0026" x2="299.341" y2="276.166" gradientUnits="userSpaceOnUse">
<stop stop-color="white" stop-opacity="0.604"/>
<stop offset="1" stop-color="white" stop-opacity="0.2"/>
</linearGradient>
</defs>
</svg>
