<svg width="361" height="187" viewBox="0 0 361 187" fill="none" xmlns="http://www.w3.org/2000/svg">
<g filter="url(#filter0_f_240_3155)">
<path d="M138.549 87.6389C138.549 87.6389 275.638 88.9529 305.319 80.3329C335 71.7129 334.962 26.9749 305.319 15.9469C275.676 4.91893 265.545 44.3379 265.545 44.3379" stroke="#D0D0D0" stroke-width="20" stroke-linecap="round"/>
<path d="M172.572 134.656C172.572 134.656 273.18 125.566 317.533 134.656C361.886 143.746 347.763 169.823 326.743 171.015C305.723 172.207 286.326 158.395 286.326 158.395" stroke="#D0D0D0" stroke-width="20" stroke-linecap="round"/>
<path d="M63.709 31.589C63.709 31.589 94.228 34.119 130.391 34.119C166.554 34.119 215.571 29.373 215.571 29.373" stroke="#D0D0D0" stroke-width="20" stroke-linecap="round"/>
<path d="M61.4251 66.2699C72.9079 66.2534 84.1291 69.6978 93.6251 76.1539C102.246 81.9974 109.134 90.0554 113.565 99.4809C117.996 108.907 119.805 119.352 118.804 129.718C117.803 140.085 114.028 149.991 107.875 158.394C101.722 166.798 93.4194 173.388 83.8391 177.474C73.5962 181.813 62.3132 183.084 51.3617 181.131C40.4102 179.179 30.2618 174.086 22.1501 166.474C11.5364 156.535 5.05609 142.962 4.00012 128.46C7.35069 129.245 10.7807 129.641 14.2221 129.64C21.6721 129.636 29.002 127.763 35.54 124.191C42.0779 120.619 47.6146 115.463 51.6426 109.196C55.6706 102.929 58.0611 95.7509 58.5947 88.3201C59.1284 80.8892 57.7882 73.4433 54.6971 66.6648C56.9303 66.4031 59.1767 66.2712 61.4251 66.2699Z" fill="#713FFD"/>
<g filter="url(#filter1_f_240_3155)">
<path d="M100.391 84.1628C87.4645 72.5242 70.5312 70.2579 62.5688 79.101C54.6065 87.9441 58.6303 104.548 71.5563 116.186C84.4823 127.825 101.416 130.091 109.378 121.248C117.34 112.405 113.317 95.8014 100.391 84.1628Z" fill="#A586FC"/>
</g>
</g>
<defs>
<filter id="filter0_f_240_3155" x="0" y="0" width="360.688" height="186.023" filterUnits="userSpaceOnUse" color-interpolation-filters="sRGB">
<feFlood flood-opacity="0" result="BackgroundImageFix"/>
<feBlend mode="normal" in="SourceGraphic" in2="BackgroundImageFix" result="shape"/>
<feGaussianBlur stdDeviation="2" result="effect1_foregroundBlur_240_3155"/>
</filter>
<filter id="filter1_f_240_3155" x="38.481" y="53.7068" width="94.9851" height="92.9358" filterUnits="userSpaceOnUse" color-interpolation-filters="sRGB">
<feFlood flood-opacity="0" result="BackgroundImageFix"/>
<feBlend mode="normal" in="SourceGraphic" in2="BackgroundImageFix" result="shape"/>
<feGaussianBlur stdDeviation="10" result="effect1_foregroundBlur_240_3155"/>
</filter>
</defs>
</svg>
