<svg width="357" height="186" viewBox="0 0 357 186" fill="none" xmlns="http://www.w3.org/2000/svg">
<g filter="url(#filter0_f_240_3117)">
<path d="M134.506 87.6389C134.506 87.6389 271.595 88.9529 301.276 80.3329C330.957 71.7129 330.919 26.9749 301.276 15.9469C271.633 4.91893 261.502 44.3379 261.502 44.3379" stroke="#D0D0D0" stroke-width="20" stroke-linecap="round"/>
<path d="M168.528 134.656C168.528 134.656 269.136 125.566 313.489 134.656C357.842 143.746 343.719 169.823 322.699 171.015C301.679 172.207 282.282 158.395 282.282 158.395" stroke="#D0D0D0" stroke-width="20" stroke-linecap="round"/>
<path d="M59.665 31.589C59.665 31.589 90.184 34.119 126.347 34.119C162.51 34.119 211.527 29.373 211.527 29.373" stroke="#D0D0D0" stroke-width="20" stroke-linecap="round"/>
<path d="M60.0483 70.3909L60.0483 177.089" stroke="#42A0F0" stroke-width="7" stroke-linecap="round"/>
<path d="M59.8354 96.4729L78.2114 77.5039" stroke="#42A0F0" stroke-width="7" stroke-linecap="round"/>
<path d="M59.8352 96.4729L40.8662 77.5039" stroke="#42A0F0" stroke-width="7" stroke-linecap="round"/>
<path d="M59.834 153.378L78.21 172.347" stroke="#42A0F0" stroke-width="7" stroke-linecap="round"/>
<path d="M59.8352 153.378L40.8662 172.347" stroke="#42A0F0" stroke-width="7" stroke-linecap="round"/>
<path d="M105.994 97.5068L13.591 150.856" stroke="#42A0F0" stroke-width="7" stroke-linecap="round"/>
<path d="M83.2994 110.362L108.915 116.792" stroke="#42A0F0" stroke-width="7" stroke-linecap="round"/>
<path d="M83.3 110.363L90.2432 84.4512" stroke="#42A0F0" stroke-width="7" stroke-linecap="round"/>
<path d="M34.019 138.816L26.7794 164.214" stroke="#42A0F0" stroke-width="7" stroke-linecap="round"/>
<path d="M34.0192 138.816L8.10703 131.873" stroke="#42A0F0" stroke-width="7" stroke-linecap="round"/>
<path d="M105.484 150.856L13.0812 97.507" stroke="#42A0F0" stroke-width="7" stroke-linecap="round"/>
<path d="M83.0035 137.63L90.2432 163.028" stroke="#42A0F0" stroke-width="7" stroke-linecap="round"/>
<path d="M83.0029 137.631L108.915 130.688" stroke="#42A0F0" stroke-width="7" stroke-linecap="round"/>
<path d="M33.7227 109.177L8.10702 115.607" stroke="#42A0F0" stroke-width="7" stroke-linecap="round"/>
<path d="M33.722 109.178L26.7789 83.266" stroke="#42A0F0" stroke-width="7" stroke-linecap="round"/>
</g>
<defs>
<filter id="filter0_f_240_3117" x="0.605957" y="0" width="356.039" height="185.088" filterUnits="userSpaceOnUse" color-interpolation-filters="sRGB">
<feFlood flood-opacity="0" result="BackgroundImageFix"/>
<feBlend mode="normal" in="SourceGraphic" in2="BackgroundImageFix" result="shape"/>
<feGaussianBlur stdDeviation="2" result="effect1_foregroundBlur_240_3117"/>
</filter>
</defs>
</svg>
