<svg width="422" height="355" viewBox="0 0 422 355" fill="none" xmlns="http://www.w3.org/2000/svg">
<g filter="url(#filter0_f_240_4031)">
<path d="M137.686 258.552C137.686 258.552 274.775 259.866 304.456 251.246C334.137 242.626 334.099 197.888 304.456 186.86C274.813 175.832 264.682 215.251 264.682 215.251" stroke="#D0D0D0" stroke-width="20" stroke-linecap="round"/>
<path d="M92.709 304.569C92.709 304.569 193.317 295.479 237.67 304.569C282.023 313.659 267.9 339.736 246.88 340.928C225.86 342.12 206.463 328.308 206.463 328.308" stroke="#D0D0D0" stroke-width="20" stroke-linecap="round"/>
<path d="M306.846 304.502H346.846" stroke="#D0D0D0" stroke-width="20" stroke-linecap="round"/>
<path d="M107.268 6.72324C114.278 6.72148 121.27 7.42975 128.137 8.83723C141.39 11.5669 153.974 16.8889 165.164 24.4972C180.667 35.0049 193.053 49.4947 201.021 66.4437C208.989 83.3927 212.244 102.175 210.444 120.817C208.644 139.459 201.856 157.271 190.793 172.383C179.73 187.495 164.801 199.347 147.574 206.695C141.312 209.356 134.8 211.388 128.136 212.76C113.685 215.69 98.7754 215.508 84.4005 212.224C70.0257 208.941 56.5155 202.632 44.77 193.718C33.0244 184.804 23.3132 173.489 16.2832 160.528C9.25319 147.566 5.06578 133.256 3.99992 118.549C15.3314 121.201 27.1023 121.372 38.5059 119.049C48.7389 116.954 58.4592 112.863 67.1119 107.012C79.9742 98.329 90.0422 86.1018 96.0959 71.8122C98.1414 66.9727 99.7027 61.9425 100.757 56.7952C103.004 45.7666 102.921 34.3899 100.513 23.3952C99.3016 17.8975 97.5102 12.5439 95.1689 7.42424C99.185 6.95689 103.225 6.72282 107.268 6.72324Z" fill="#713FFD"/>
<g filter="url(#filter1_f_240_4031)">
<path d="M177.339 38.8963C154.095 17.9668 123.644 13.8915 109.325 29.7939C95.0067 45.6964 102.243 75.5545 125.487 96.484C148.732 117.414 179.183 121.489 193.501 105.586C207.82 89.6839 200.584 59.8258 177.339 38.8963Z" fill="#A586FC"/>
</g>
<g filter="url(#filter2_d_240_4031)">
<path d="M291.345 280.002H99.913C81.3426 279.988 63.4976 272.791 50.1137 259.917C36.7298 247.043 28.8447 229.491 28.1092 210.936C27.3737 192.38 33.8448 174.259 46.1677 160.366C58.4906 146.473 75.71 137.886 94.221 136.402C96.8608 117.762 105.278 100.419 118.289 86.8122C131.299 73.2055 148.248 64.0202 166.752 60.5486C185.255 57.077 204.381 59.4938 221.439 67.459C238.497 75.4242 252.628 88.5368 261.845 104.952C278.75 99.1003 297.015 98.4165 314.311 102.988C331.606 107.56 347.148 117.18 358.953 130.621C370.759 144.062 378.293 160.715 380.594 178.456C382.896 196.196 379.861 214.221 371.877 230.229C367.192 244.693 358.045 257.3 345.749 266.242C333.453 275.184 318.641 280.001 303.437 280.002H291.345Z" fill="url(#paint0_linear_240_4031)"/>
<path d="M303.437 279.002C311.156 279.002 318.746 277.769 325.996 275.338C333.006 272.987 339.587 269.557 345.557 265.142C351.458 260.778 356.631 255.55 360.932 249.605C365.287 243.585 368.649 236.962 370.925 229.921L370.949 229.849L370.983 229.781C374.01 223.733 376.341 217.335 377.911 210.765C379.526 204.005 380.345 197.019 380.345 190.002C380.345 183.963 379.737 177.928 378.537 172.064C377.368 166.35 375.623 160.73 373.352 155.359C371.121 150.086 368.36 145 365.146 140.242C361.962 135.529 358.305 131.097 354.278 127.069C350.25 123.042 345.818 119.385 341.105 116.201C336.347 112.987 331.261 110.226 325.988 107.995C320.617 105.724 314.997 103.979 309.283 102.81C303.42 101.61 297.384 101.002 291.345 101.002C281.346 101.002 271.531 102.647 262.172 105.893L261.383 106.167L260.973 105.438C253.357 91.8964 242.279 80.5238 228.937 72.55C222.189 68.5174 214.94 65.4012 207.391 63.2879C199.602 61.1077 191.512 60.0022 183.345 60.0022C172.361 60.0022 161.638 61.9792 151.475 65.8782C141.657 69.6449 132.65 75.0859 124.705 82.0502C116.806 88.9744 110.251 97.1444 105.221 106.333C100.069 115.747 96.7006 125.909 95.2113 136.537L95.0998 137.333L94.299 137.395C85.3408 138.096 76.7219 140.455 68.6818 144.405C60.8694 148.244 53.8932 153.436 47.947 159.837C35.7289 172.989 29 190.125 29 208.089C29 217.663 30.8748 226.949 34.5723 235.691C36.3495 239.893 38.5491 243.945 41.1102 247.736C43.6472 251.491 46.5607 255.023 49.7699 258.232C52.9791 261.441 56.5104 264.355 60.2655 266.892C64.0565 269.453 68.109 271.652 72.3106 273.429C81.0525 277.127 90.3391 279.002 99.9127 279.002H291.345H303.437ZM303.437 280.002H291.345H99.9127C60.1966 280.002 28 247.805 28 208.089C28 170.288 57.1646 139.299 94.221 136.398C100.35 92.6596 137.917 59.0022 183.345 59.0022C217.048 59.0022 246.422 77.5253 261.845 104.948C271.087 101.743 281.012 100.002 291.345 100.002C341.051 100.002 381.345 140.297 381.345 190.002C381.345 204.461 377.936 218.123 371.877 230.229C362.54 259.111 335.427 280.002 303.437 280.002Z" fill="white" fill-opacity="0.5"/>
</g>
</g>
<defs>
<filter id="filter0_f_240_4031" x="0" y="2.72327" width="385.345" height="352.278" filterUnits="userSpaceOnUse" color-interpolation-filters="sRGB">
<feFlood flood-opacity="0" result="BackgroundImageFix"/>
<feBlend mode="normal" in="SourceGraphic" in2="BackgroundImageFix" result="shape"/>
<feGaussianBlur stdDeviation="2" result="effect1_foregroundBlur_240_4031"/>
</filter>
<filter id="filter1_f_240_4031" x="81.9741" y="0.0933838" width="138.878" height="135.194" filterUnits="userSpaceOnUse" color-interpolation-filters="sRGB">
<feFlood flood-opacity="0" result="BackgroundImageFix"/>
<feBlend mode="normal" in="SourceGraphic" in2="BackgroundImageFix" result="shape"/>
<feGaussianBlur stdDeviation="10" result="effect1_foregroundBlur_240_4031"/>
</filter>
<filter id="filter2_d_240_4031" x="8" y="31.0022" width="413.345" height="281" filterUnits="userSpaceOnUse" color-interpolation-filters="sRGB">
<feFlood flood-opacity="0" result="BackgroundImageFix"/>
<feColorMatrix in="SourceAlpha" type="matrix" values="0 0 0 0 0 0 0 0 0 0 0 0 0 0 0 0 0 0 127 0" result="hardAlpha"/>
<feOffset dx="10" dy="2"/>
<feGaussianBlur stdDeviation="15"/>
<feColorMatrix type="matrix" values="0 0 0 0 0.501961 0 0 0 0 0.501961 0 0 0 0 0.501961 0 0 0 0.302 0"/>
<feBlend mode="normal" in2="BackgroundImageFix" result="effect1_dropShadow_240_4031"/>
<feBlend mode="normal" in="SourceGraphic" in2="effect1_dropShadow_240_4031" result="shape"/>
</filter>
<linearGradient id="paint0_linear_240_4031" x1="204.698" y1="59.0048" x2="307.341" y2="307.169" gradientUnits="userSpaceOnUse">
<stop stop-color="white" stop-opacity="0.604"/>
<stop offset="1" stop-color="white" stop-opacity="0.2"/>
</linearGradient>
</defs>
</svg>
