<svg width="424" height="346" viewBox="0 0 424 346" fill="none" xmlns="http://www.w3.org/2000/svg">
<g filter="url(#filter0_f_240_4018)">
<path d="M108.148 214.763C162.548 214.763 206.648 170.439 206.648 115.763C206.648 61.0868 162.548 16.763 108.148 16.763C53.7479 16.763 9.64795 61.0868 9.64795 115.763C9.64795 170.439 53.7479 214.763 108.148 214.763Z" fill="#FA9E42"/>
<g filter="url(#filter1_f_240_4018)">
<path d="M101.03 101.684C133.767 84.2963 152.077 54.7096 141.928 35.6003C131.778 16.4911 97.0115 15.0956 64.2749 32.4835C31.5383 49.8713 13.228 79.4581 23.3778 98.5673C33.5275 117.677 68.2938 119.072 101.03 101.684Z" fill="#F8E36F"/>
</g>
<path d="M320.8 215.314C320.8 215.314 302.038 232.206 287.374 231.647C268.992 230.93 265.844 216.208 248.81 215.314C230.981 215.491 229.162 230.761 209.837 231.647C192.522 231.441 185.187 215.59 168.683 215.314C152.179 215.038 134.583 231.647 134.583 231.647" stroke="white" stroke-width="20" stroke-linecap="round"/>
<path d="M256.8 269.314C256.8 269.314 238.038 286.206 223.374 285.647C204.992 284.93 201.844 270.208 184.81 269.314C166.981 269.491 165.162 284.761 145.837 285.647C128.522 285.441 121.187 269.59 104.683 269.314C88.179 269.038 70.583 285.647 70.583 285.647" stroke="white" stroke-width="20" stroke-linecap="round"/>
<path d="M354.8 315.314C354.8 315.314 336.038 332.206 321.374 331.647C302.992 330.93 299.844 316.208 282.81 315.314C264.981 315.491 263.162 330.761 243.837 331.647C226.522 331.441 219.187 315.59 202.683 315.314C186.179 315.038 168.583 331.647 168.583 331.647" stroke="white" stroke-width="20" stroke-linecap="round"/>
<g filter="url(#filter2_d_240_4018)">
<path d="M293.345 284.937H101.913C83.3426 284.923 65.4976 277.726 52.1137 264.852C38.7298 251.978 30.8447 234.426 30.1092 215.87C29.3737 197.314 35.8448 179.193 48.1677 165.301C60.4906 151.408 77.71 142.821 96.221 141.337C98.8608 122.697 107.278 105.354 120.289 91.747C133.299 78.1403 150.248 68.955 168.752 65.4834C187.255 62.0118 206.381 64.4286 223.439 72.3937C240.497 80.3589 254.628 93.4716 263.845 109.887C280.75 104.035 299.015 103.351 316.311 107.923C333.606 112.495 349.148 122.115 360.953 135.556C372.759 148.997 380.293 165.65 382.594 183.39C384.896 201.131 381.861 219.155 373.877 235.164C369.192 249.627 360.045 262.235 347.749 271.177C335.453 280.119 320.641 284.936 305.437 284.937H293.345Z" fill="url(#paint0_linear_240_4018)"/>
<path d="M305.437 283.937C313.156 283.937 320.746 282.704 327.996 280.273C335.006 277.922 341.587 274.492 347.557 270.077C353.458 265.713 358.631 260.485 362.932 254.539C367.287 248.519 370.649 241.897 372.925 234.856L372.949 234.784L372.983 234.716C376.01 228.668 378.341 222.27 379.911 215.7C381.526 208.94 382.345 201.954 382.345 194.937C382.345 188.897 381.737 182.862 380.537 176.999C379.368 171.285 377.623 165.665 375.352 160.294C373.121 155.021 370.36 149.935 367.146 145.177C363.962 140.464 360.305 136.032 356.278 132.004C352.25 127.976 347.818 124.32 343.105 121.136C338.347 117.921 333.261 115.161 327.988 112.93C322.617 110.659 316.997 108.914 311.283 107.745C305.42 106.545 299.384 105.937 293.345 105.937C283.346 105.937 273.531 107.582 264.172 110.828L263.383 111.102L262.973 110.373C255.357 96.8312 244.279 85.4586 230.937 77.4848C224.189 73.4522 216.94 70.336 209.391 68.2227C201.602 66.0425 193.512 64.937 185.345 64.937C174.361 64.937 163.638 66.914 153.475 70.8131C143.657 74.5797 134.65 80.0207 126.705 86.985C118.806 93.9092 112.251 102.079 107.221 111.268C102.069 120.682 98.7006 130.844 97.2113 141.472L97.0998 142.267L96.299 142.33C87.3408 143.031 78.7219 145.39 70.6818 149.34C62.8694 153.179 55.8932 158.371 49.947 164.771C37.7289 177.924 31 195.06 31 213.024C31 222.597 32.8748 231.884 36.5723 240.626C38.3495 244.828 40.5491 248.88 43.1102 252.671C45.6472 256.426 48.5607 259.957 51.7699 263.167C54.9791 266.376 58.5104 269.289 62.2655 271.826C66.0565 274.387 70.109 276.587 74.3106 278.364C83.0525 282.062 92.3391 283.937 101.913 283.937H293.345H305.437ZM305.437 284.937H293.345H101.913C62.1966 284.937 30 252.74 30 213.024C30 175.223 59.1646 144.234 96.221 141.333C102.35 97.5944 139.917 63.937 185.345 63.937C219.048 63.937 248.422 82.4601 263.845 109.883C273.087 106.678 283.012 104.937 293.345 104.937C343.051 104.937 383.345 145.231 383.345 194.937C383.345 209.396 379.936 223.058 373.877 235.164C364.54 264.046 337.427 284.937 305.437 284.937Z" fill="white" fill-opacity="0.5"/>
</g>
</g>
<defs>
<filter id="filter0_f_240_4018" x="5.64795" y="12.763" width="381.698" height="332.897" filterUnits="userSpaceOnUse" color-interpolation-filters="sRGB">
<feFlood flood-opacity="0" result="BackgroundImageFix"/>
<feBlend mode="normal" in="SourceGraphic" in2="BackgroundImageFix" result="shape"/>
<feGaussianBlur stdDeviation="2" result="effect1_foregroundBlur_240_4018"/>
</filter>
<filter id="filter1_f_240_4018" x="0.577637" y="0.303223" width="164.15" height="133.561" filterUnits="userSpaceOnUse" color-interpolation-filters="sRGB">
<feFlood flood-opacity="0" result="BackgroundImageFix"/>
<feBlend mode="normal" in="SourceGraphic" in2="BackgroundImageFix" result="shape"/>
<feGaussianBlur stdDeviation="10" result="effect1_foregroundBlur_240_4018"/>
</filter>
<filter id="filter2_d_240_4018" x="10" y="35.937" width="413.345" height="281" filterUnits="userSpaceOnUse" color-interpolation-filters="sRGB">
<feFlood flood-opacity="0" result="BackgroundImageFix"/>
<feColorMatrix in="SourceAlpha" type="matrix" values="0 0 0 0 0 0 0 0 0 0 0 0 0 0 0 0 0 0 127 0" result="hardAlpha"/>
<feOffset dx="10" dy="2"/>
<feGaussianBlur stdDeviation="15"/>
<feColorMatrix type="matrix" values="0 0 0 0 0.501961 0 0 0 0 0.501961 0 0 0 0 0.501961 0 0 0 0.302 0"/>
<feBlend mode="normal" in2="BackgroundImageFix" result="effect1_dropShadow_240_4018"/>
<feBlend mode="normal" in="SourceGraphic" in2="effect1_dropShadow_240_4018" result="shape"/>
</filter>
<linearGradient id="paint0_linear_240_4018" x1="206.698" y1="63.9395" x2="309.341" y2="312.103" gradientUnits="userSpaceOnUse">
<stop stop-color="white" stop-opacity="0.604"/>
<stop offset="1" stop-color="white" stop-opacity="0.2"/>
</linearGradient>
</defs>
</svg>
