<svg width="429" height="377" viewBox="0 0 429 377" fill="none" xmlns="http://www.w3.org/2000/svg">
<path d="M179.09 203.426C179.806 203.444 187.072 228.674 187.072 238.478C187.072 248.282 183.498 256.231 179.09 256.231C174.682 256.231 171.108 248.283 171.108 238.479C171.108 228.675 178.374 203.409 179.09 203.426Z" fill="#42A0F0"/>
<path d="M175.233 241.478C176.399 241.834 177.935 240.192 178.664 237.809C179.392 235.426 179.038 233.205 177.872 232.848C176.705 232.492 175.169 234.134 174.441 236.517C173.712 238.901 174.067 241.121 175.233 241.478Z" fill="white"/>
<path d="M238.516 203.426C239.232 203.444 246.498 228.674 246.498 238.478C246.498 248.282 242.924 256.231 238.516 256.231C234.108 256.231 230.534 248.283 230.534 238.479C230.534 228.675 237.8 203.409 238.516 203.426Z" fill="#42A0F0"/>
<path d="M234.659 241.478C235.825 241.834 237.361 240.192 238.09 237.809C238.818 235.426 238.464 233.205 237.298 232.848C236.131 232.492 234.595 234.134 233.867 236.517C233.138 238.901 233.493 241.121 234.659 241.478Z" fill="white"/>
<path d="M293.403 200.426C294.119 200.444 301.385 225.674 301.385 235.478C301.385 245.282 297.811 253.231 293.403 253.231C288.995 253.231 285.421 245.283 285.421 235.479C285.421 225.675 292.687 200.409 293.403 200.426Z" fill="#42A0F0"/>
<path d="M289.546 238.478C290.712 238.834 292.248 237.192 292.977 234.809C293.705 232.426 293.351 230.205 292.185 229.848C291.018 229.492 289.482 231.134 288.754 233.517C288.025 235.901 288.38 238.121 289.546 238.478Z" fill="white"/>
<path d="M207.055 270.426C207.771 270.444 215.037 295.674 215.037 305.478C215.037 315.282 211.463 323.231 207.055 323.231C202.647 323.231 199.073 315.283 199.073 305.479C199.073 295.675 206.339 270.409 207.055 270.426Z" fill="#42A0F0"/>
<path d="M203.198 308.478C204.364 308.834 205.9 307.192 206.629 304.809C207.358 302.426 207.003 300.205 205.837 299.848C204.67 299.492 203.134 301.134 202.406 303.517C201.677 305.901 202.032 308.121 203.198 308.478Z" fill="white"/>
<path d="M266.481 270.426C267.197 270.444 274.463 295.674 274.463 305.478C274.463 315.282 270.889 323.231 266.481 323.231C262.073 323.231 258.499 315.283 258.499 305.479C258.499 295.675 265.765 270.409 266.481 270.426Z" fill="#42A0F0"/>
<path d="M262.624 308.478C263.79 308.834 265.326 307.192 266.055 304.809C266.784 302.426 266.429 300.205 265.263 299.848C264.096 299.492 262.561 301.134 261.832 303.517C261.103 305.901 261.458 308.121 262.624 308.478Z" fill="white"/>
<path d="M329.403 270.426C330.119 270.444 337.385 295.674 337.385 305.478C337.385 315.282 333.811 323.231 329.403 323.231C324.995 323.231 321.421 315.283 321.421 305.479C321.421 295.675 328.687 270.409 329.403 270.426Z" fill="#42A0F0"/>
<path d="M325.546 308.478C326.712 308.834 328.248 307.192 328.977 304.809C329.705 302.426 329.351 300.205 328.185 299.848C327.018 299.492 325.482 301.134 324.754 303.517C324.025 305.901 324.38 308.121 325.546 308.478Z" fill="white"/>
<path d="M179.09 323.426C179.806 323.444 187.072 348.674 187.072 358.478C187.072 368.282 183.498 376.231 179.09 376.231C174.682 376.231 171.108 368.283 171.108 358.479C171.108 348.675 178.374 323.409 179.09 323.426Z" fill="#42A0F0"/>
<path d="M175.233 361.478C176.399 361.834 177.935 360.192 178.664 357.809C179.392 355.426 179.038 353.205 177.872 352.848C176.705 352.492 175.169 354.134 174.441 356.517C173.712 358.901 174.067 361.121 175.233 361.478Z" fill="white"/>
<path d="M238.516 323.426C239.232 323.444 246.498 348.674 246.498 358.478C246.498 368.282 242.924 376.231 238.516 376.231C234.108 376.231 230.534 368.283 230.534 358.479C230.534 348.675 237.8 323.409 238.516 323.426Z" fill="#42A0F0"/>
<path d="M234.659 361.478C235.825 361.834 237.361 360.192 238.09 357.809C238.818 355.426 238.464 353.205 237.298 352.848C236.131 352.492 234.595 354.134 233.867 356.517C233.138 358.901 233.493 361.121 234.659 361.478Z" fill="white"/>
<path d="M293.403 323.426C294.119 323.444 301.385 348.674 301.385 358.478C301.385 368.282 297.811 376.231 293.403 376.231C288.995 376.231 285.421 368.283 285.421 358.479C285.421 348.675 292.687 323.409 293.403 323.426Z" fill="#42A0F0"/>
<path d="M289.546 361.478C290.712 361.834 292.248 360.192 292.977 357.809C293.705 355.426 293.351 353.205 292.185 352.848C291.018 352.492 289.482 354.134 288.754 356.517C288.025 358.901 288.38 361.121 289.546 361.478Z" fill="white"/>
<path d="M107.25 238.551H153.896L127.081 277.929L158.434 278.523L92.6259 356.411L108.571 297.027H79.3799L107.25 238.551Z" fill="url(#paint0_linear_240_4700)"/>
<path d="M96.544 5.3486C103.097 5.34721 109.633 6.00958 116.053 7.32559C128.443 9.87761 140.207 14.8529 150.668 21.9656C165.161 31.7889 176.74 45.3349 184.189 61.18C191.638 77.0251 194.681 94.5841 192.998 112.012C191.315 129.439 184.969 146.091 174.626 160.219C164.283 174.346 150.326 185.426 134.221 192.295C128.366 194.782 122.279 196.681 116.049 197.964C102.539 200.704 88.6007 200.534 75.1619 197.465C61.7231 194.396 49.0926 188.498 38.112 180.165C27.1314 171.831 18.0528 161.253 11.481 149.136C4.90932 137.018 0.995377 123.639 -3.05176e-05 109.891C5.63318 111.211 11.4 111.877 17.186 111.875C32.0883 111.898 46.6547 107.449 59 99.1016C71.0248 90.9864 80.4383 79.5582 86.1 66.2016C89.9976 56.9922 91.9965 47.0908 91.977 37.0906C91.9777 31.6599 91.3907 26.245 90.226 20.9406C89.0922 15.8007 87.4162 10.7957 85.226 6.0096C88.9827 5.57053 92.7617 5.34982 96.544 5.3486Z" fill="#713FFD"/>
<path d="M162.048 35.4272C140.318 15.8613 111.85 12.0517 98.4646 26.9182C85.0787 41.7847 91.8431 69.6977 113.573 89.2636C135.303 108.829 163.77 112.639 177.156 97.7725C190.542 82.906 183.778 54.993 162.048 35.4272Z" fill="#A586FC"/>
<g filter="url(#filter0_d_240_4700)">
<path d="M298.065 265.069H106.633C88.0628 265.054 70.2178 257.857 56.8339 244.983C43.45 232.11 35.5649 214.558 34.8294 196.002C34.0939 177.446 40.565 159.325 52.8879 145.432C65.2108 131.54 82.4302 122.952 100.941 121.469C103.581 102.829 111.998 85.4852 125.009 71.8785C138.02 58.2718 154.969 49.0865 173.472 45.6149C191.975 42.1433 211.101 44.5601 228.159 52.5253C245.217 60.4904 259.348 73.6031 268.565 90.0185C285.47 84.1667 303.735 83.4828 321.03 88.0542C338.325 92.6256 353.866 102.245 365.672 115.685C377.477 129.126 385.012 145.778 387.314 163.519C389.617 181.259 386.583 199.283 378.599 215.292C373.915 229.756 364.768 242.365 352.471 251.308C340.175 260.251 325.362 265.068 310.157 265.069H298.065Z" fill="url(#paint1_linear_240_4700)"/>
<path d="M310.157 264.068C317.877 264.068 325.468 262.836 332.718 260.404C339.729 258.054 346.311 254.623 352.281 250.208C358.182 245.843 363.355 240.615 367.656 234.669C372.01 228.648 375.372 222.025 377.648 214.984L377.671 214.912L377.705 214.844C380.731 208.796 383.061 202.399 384.631 195.829C386.247 189.069 387.066 182.084 387.066 175.068C387.066 169.029 386.457 162.994 385.257 157.131C384.088 151.417 382.344 145.796 380.072 140.426C377.842 135.152 375.081 130.066 371.867 125.308C368.683 120.595 365.026 116.163 360.998 112.136C356.971 108.108 352.539 104.451 347.826 101.267C343.068 98.0531 337.982 95.2923 332.708 93.0618C327.338 90.7902 321.717 89.0455 316.003 87.8763C310.14 86.6765 304.105 86.0681 298.066 86.0681C288.066 86.0681 278.251 87.7138 268.892 90.9594L268.103 91.2332L267.693 90.5048C260.077 76.9629 249 65.5903 235.657 57.6165C228.91 53.5839 221.66 50.4676 214.111 48.3543C206.322 46.1741 198.232 45.0686 190.066 45.0686C179.081 45.0686 168.358 47.0456 158.195 50.9446C148.377 54.7113 139.37 60.1523 131.425 67.1166C123.526 74.0408 116.971 82.2108 111.942 91.3994C106.789 100.814 103.421 110.976 101.931 121.604L101.82 122.399L101.019 122.462C92.061 123.163 83.4421 125.521 75.402 129.472C67.5896 133.31 60.6134 138.502 54.6672 144.903C42.4491 158.055 35.7202 175.192 35.7202 193.155C35.7202 202.729 37.595 212.016 41.2925 220.757C43.0697 224.959 45.2694 229.012 47.8304 232.803C50.3674 236.558 53.2809 240.089 56.4901 243.298C59.6993 246.507 63.2306 249.421 66.9857 251.958C70.7767 254.519 74.8292 256.719 79.0309 258.496C87.7727 262.193 97.0594 264.068 106.633 264.068H298.066H310.157ZM310.157 265.068H298.066H106.633C66.9168 265.068 34.7202 232.872 34.7202 193.155C34.7202 155.354 63.8849 124.365 100.941 121.465C107.071 77.726 144.637 44.0686 190.066 44.0686C223.768 44.0686 253.143 62.5918 268.565 90.0146C277.807 86.8093 287.733 85.0681 298.066 85.0681C347.772 85.0681 388.066 125.363 388.066 175.068C388.066 189.524 384.656 203.187 378.599 215.291C369.264 244.177 342.151 265.068 310.157 265.068Z" fill="white" fill-opacity="0.5"/>
</g>
<defs>
<filter id="filter0_d_240_4700" x="14.7202" y="16.0686" width="413.345" height="281" filterUnits="userSpaceOnUse" color-interpolation-filters="sRGB">
<feFlood flood-opacity="0" result="BackgroundImageFix"/>
<feColorMatrix in="SourceAlpha" type="matrix" values="0 0 0 0 0 0 0 0 0 0 0 0 0 0 0 0 0 0 127 0" result="hardAlpha"/>
<feOffset dx="10" dy="2"/>
<feGaussianBlur stdDeviation="15"/>
<feColorMatrix type="matrix" values="0 0 0 0 0.501961 0 0 0 0 0.501961 0 0 0 0 0.501961 0 0 0 0.302 0"/>
<feBlend mode="normal" in2="BackgroundImageFix" result="effect1_dropShadow_240_4700"/>
<feBlend mode="normal" in="SourceGraphic" in2="effect1_dropShadow_240_4700" result="shape"/>
</filter>
<linearGradient id="paint0_linear_240_4700" x1="111.634" y1="297.481" x2="74.7074" y2="283.943" gradientUnits="userSpaceOnUse">
<stop stop-color="#FFD100"/>
<stop offset="1" stop-color="#FFF0AA"/>
</linearGradient>
<linearGradient id="paint1_linear_240_4700" x1="211.418" y1="44.071" x2="314.061" y2="292.235" gradientUnits="userSpaceOnUse">
<stop stop-color="white" stop-opacity="0.604"/>
<stop offset="1" stop-color="white" stop-opacity="0.2"/>
</linearGradient>
</defs>
</svg>
