<svg width="414" height="323" viewBox="0 0 414 323" fill="none" xmlns="http://www.w3.org/2000/svg">
<g filter="url(#filter0_f_240_4458)">
<path d="M223.43 225.186C223.43 225.186 293.556 227.346 321.456 219.244C351.137 210.624 351.099 165.886 321.456 154.858C291.813 143.83 281.682 183.249 281.682 183.249" stroke="#D0D0D0" stroke-width="20" stroke-linecap="round"/>
<path d="M180.13 268.848C180.13 268.848 210.318 263.478 254.671 272.567C299.024 281.656 284.901 307.734 263.881 308.926C242.861 310.118 223.464 296.306 223.464 296.306" stroke="#D0D0D0" stroke-width="20" stroke-linecap="round"/>
<path d="M323.846 272.5H363.846" stroke="#D0D0D0" stroke-width="20" stroke-linecap="round"/>
<path d="M123.144 202.773C120.948 202.802 98.668 237.584 98.668 251.102C98.668 257.593 101.247 263.819 105.837 268.409C110.427 272.999 116.653 275.578 123.144 275.578C129.635 275.578 135.861 272.999 140.451 268.409C145.041 263.819 147.62 257.593 147.62 251.102C147.62 237.584 125.34 202.749 123.144 202.773Z" fill="#42A0F0"/>
<path d="M136.776 243.803C134.331 244.55 133.474 248.839 134.862 253.381C136.251 257.923 139.359 260.999 141.805 260.251C144.251 259.503 145.108 255.215 143.719 250.673C142.331 246.131 139.222 243.055 136.776 243.803Z" fill="white"/>
<path d="M57.2 251.86C55.388 251.88 37 280.589 37 291.747C37 297.104 39.1282 302.242 42.9164 306.031C46.7047 309.819 51.8426 311.947 57.2 311.947C62.5574 311.947 67.6953 309.819 71.4836 306.031C75.2718 302.242 77.4 297.104 77.4 291.747C77.4 280.589 59.013 251.84 57.2 251.86Z" fill="#42A0F0"/>
<path d="M68.4519 285.724C66.4333 286.341 65.7259 289.88 66.8719 293.628C68.0179 297.376 70.5832 299.915 72.6018 299.297C74.6204 298.68 75.3278 295.141 74.1819 291.393C73.0359 287.645 70.4705 285.106 68.4519 285.724Z" fill="white"/>
<g filter="url(#filter1_d_240_4458)">
<path d="M283.345 249H91.913C73.3426 248.986 55.4976 241.789 42.1137 228.915C28.7298 216.041 20.8447 198.489 20.1092 179.933C19.3737 161.378 25.8448 143.257 38.1677 129.364C50.4906 115.471 67.71 106.884 86.221 105.4C88.8608 86.7601 97.2781 69.4167 110.289 55.81C123.299 42.2033 140.248 33.018 158.752 29.5464C177.255 26.0748 196.381 28.4916 213.439 36.4568C230.497 44.422 244.628 57.5346 253.845 73.9501C270.75 68.0981 289.015 67.4143 306.311 71.986C323.606 76.5577 339.148 86.1776 350.953 99.6187C362.759 113.06 370.293 129.713 372.594 147.453C374.896 165.194 371.861 183.218 363.877 199.227C359.192 213.691 350.045 226.298 337.749 235.24C325.453 244.182 310.641 248.999 295.437 249H283.345Z" fill="url(#paint0_linear_240_4458)"/>
<path d="M295.437 248C303.156 248 310.746 246.767 317.996 244.336C325.006 241.985 331.587 238.555 337.557 234.14C343.458 229.776 348.631 224.548 352.932 218.602C357.287 212.582 360.649 205.96 362.925 198.919L362.949 198.847L362.983 198.779C366.01 192.731 368.341 186.333 369.911 179.763C371.526 173.003 372.345 166.017 372.345 158.999C372.345 152.96 371.737 146.925 370.537 141.062C369.368 135.348 367.623 129.728 365.352 124.357C363.121 119.084 360.36 113.997 357.146 109.24C353.962 104.527 350.305 100.095 346.278 96.0672C342.25 92.0395 337.818 88.3828 333.105 85.1988C328.347 81.9845 323.261 79.2237 317.988 76.9932C312.617 74.7216 306.997 72.9769 301.283 71.8077C295.42 70.6079 289.384 69.9995 283.345 69.9995C273.346 69.9995 263.531 71.6451 254.172 74.8907L253.383 75.1645L252.973 74.4361C245.357 60.8942 234.279 49.5216 220.937 41.5478C214.189 37.5152 206.94 34.399 199.391 32.2857C191.602 30.1055 183.512 29 175.345 29C164.361 29 153.638 30.977 143.475 34.876C133.657 38.6427 124.65 44.0837 116.705 51.048C108.806 57.9722 102.251 66.1422 97.2213 75.3308C92.0685 84.7451 88.7006 94.9073 87.2113 105.535L87.0998 106.33L86.299 106.393C77.3408 107.094 68.7219 109.453 60.6818 113.403C52.8694 117.242 45.8932 122.434 39.947 128.834C27.7289 141.987 21 159.123 21 177.087C21 186.66 22.8748 195.947 26.5723 204.689C28.3495 208.891 30.5491 212.943 33.1102 216.734C35.6472 220.489 38.5607 224.02 41.7699 227.23C44.9791 230.439 48.5104 233.352 52.2655 235.889C56.0565 238.45 60.109 240.65 64.3106 242.427C73.0525 246.125 82.3391 248 91.9127 248H283.345H295.437ZM295.437 249H283.345H91.9127C52.1966 249 20 216.803 20 177.087C20 139.286 49.1646 108.297 86.221 105.396C92.3504 61.6574 129.917 28 175.345 28C209.048 28 238.422 46.5231 253.845 73.9459C263.087 70.7406 273.012 68.9995 283.345 68.9995C333.051 68.9995 373.345 109.294 373.345 158.999C373.345 173.459 369.936 187.121 363.877 199.227C354.54 228.109 327.427 249 295.437 249Z" fill="white" fill-opacity="0.5"/>
</g>
</g>
<defs>
<filter id="filter0_f_240_4458" x="16" y="24" width="361.846" height="298.999" filterUnits="userSpaceOnUse" color-interpolation-filters="sRGB">
<feFlood flood-opacity="0" result="BackgroundImageFix"/>
<feBlend mode="normal" in="SourceGraphic" in2="BackgroundImageFix" result="shape"/>
<feGaussianBlur stdDeviation="2" result="effect1_foregroundBlur_240_4458"/>
</filter>
<filter id="filter1_d_240_4458" x="0" y="0" width="413.345" height="281" filterUnits="userSpaceOnUse" color-interpolation-filters="sRGB">
<feFlood flood-opacity="0" result="BackgroundImageFix"/>
<feColorMatrix in="SourceAlpha" type="matrix" values="0 0 0 0 0 0 0 0 0 0 0 0 0 0 0 0 0 0 127 0" result="hardAlpha"/>
<feOffset dx="10" dy="2"/>
<feGaussianBlur stdDeviation="15"/>
<feColorMatrix type="matrix" values="0 0 0 0 0.501961 0 0 0 0 0.501961 0 0 0 0 0.501961 0 0 0 0.302 0"/>
<feBlend mode="normal" in2="BackgroundImageFix" result="effect1_dropShadow_240_4458"/>
<feBlend mode="normal" in="SourceGraphic" in2="effect1_dropShadow_240_4458" result="shape"/>
</filter>
<linearGradient id="paint0_linear_240_4458" x1="196.698" y1="28.0026" x2="299.341" y2="276.166" gradientUnits="userSpaceOnUse">
<stop stop-color="white" stop-opacity="0.604"/>
<stop offset="1" stop-color="white" stop-opacity="0.2"/>
</linearGradient>
</defs>
</svg>
