<svg width="431" height="343" viewBox="0 0 431 343" fill="none" xmlns="http://www.w3.org/2000/svg">
<g filter="url(#filter0_f_240_4382)">
<path d="M327.801 212.378C327.801 212.378 309.039 229.27 294.375 228.711C275.993 227.994 272.845 213.272 255.811 212.378C237.982 212.555 236.163 227.825 216.838 228.711C199.523 228.505 192.188 212.654 175.684 212.378C159.18 212.102 141.584 228.711 141.584 228.711" stroke="white" stroke-width="20" stroke-linecap="round"/>
<path d="M263.801 266.378C263.801 266.378 245.039 283.27 230.375 282.711C211.993 281.994 208.845 267.272 191.811 266.378C173.982 266.555 172.163 281.825 152.838 282.711C135.523 282.505 128.188 266.654 111.684 266.378C95.18 266.102 77.584 282.711 77.584 282.711" stroke="white" stroke-width="20" stroke-linecap="round"/>
<path d="M361.801 312.378C361.801 312.378 343.039 329.27 328.375 328.711C309.993 327.994 306.845 313.272 289.811 312.378C271.982 312.555 270.163 327.825 250.838 328.711C233.523 328.505 226.188 312.654 209.684 312.378C193.18 312.102 175.584 328.711 175.584 328.711" stroke="white" stroke-width="20" stroke-linecap="round"/>
<path d="M107.268 6.72324C114.278 6.72148 121.27 7.42975 128.137 8.83723C141.39 11.5669 153.974 16.8889 165.164 24.4972C180.667 35.0049 193.053 49.4947 201.021 66.4437C208.989 83.3927 212.244 102.175 210.444 120.817C208.644 139.459 201.856 157.271 190.793 172.383C179.73 187.495 164.801 199.347 147.574 206.695C141.312 209.356 134.8 211.388 128.136 212.76C113.685 215.69 98.7754 215.508 84.4005 212.224C70.0257 208.941 56.5155 202.632 44.77 193.718C33.0244 184.804 23.3132 173.489 16.2832 160.528C9.25319 147.566 5.06578 133.256 3.99992 118.549C15.3314 121.201 27.1023 121.372 38.5059 119.049C48.7389 116.954 58.4592 112.863 67.1119 107.012C79.9742 98.329 90.0422 86.1018 96.0959 71.8122C98.1414 66.9727 99.7027 61.9425 100.757 56.7952C103.004 45.7666 102.921 34.3899 100.513 23.3952C99.3016 17.8975 97.5102 12.5439 95.1689 7.42424C99.185 6.95689 103.225 6.72282 107.268 6.72324Z" fill="#713FFD"/>
<g filter="url(#filter1_f_240_4382)">
<path d="M177.339 38.8963C154.095 17.9668 123.644 13.8915 109.325 29.7939C95.0065 45.6964 102.242 75.5545 125.487 96.484C148.732 117.414 179.182 121.489 193.501 105.586C207.82 89.6839 200.584 59.8258 177.339 38.8963Z" fill="#A586FC"/>
</g>
<g filter="url(#filter2_d_240_4382)">
<path d="M300.346 282.002H108.914C90.3436 281.988 72.4986 274.791 59.1147 261.917C45.7308 249.043 37.8457 231.491 37.1102 212.936C36.3747 194.38 42.8457 176.259 55.1687 162.366C67.4916 148.473 84.711 139.886 103.222 138.402C105.862 119.762 114.279 102.419 127.29 88.8122C140.3 75.2055 157.249 66.0202 175.753 62.5486C194.256 59.077 213.382 61.4938 230.44 69.459C247.498 77.4242 261.629 90.5368 270.846 106.952C287.751 101.1 306.016 100.417 323.312 104.988C340.607 109.56 356.149 119.18 367.954 132.621C379.76 146.062 387.294 162.715 389.595 180.456C391.897 198.196 388.862 216.221 380.878 232.229C376.193 246.693 367.046 259.3 354.75 268.242C342.454 277.184 327.642 282.001 312.438 282.002H300.346Z" fill="url(#paint0_linear_240_4382)"/>
<path d="M312.438 281.002C320.157 281.002 327.747 279.769 334.997 277.338C342.007 274.987 348.588 271.557 354.558 267.142C360.459 262.778 365.632 257.55 369.933 251.605C374.288 245.585 377.65 238.962 379.926 231.921L379.95 231.849L379.984 231.781C383.011 225.733 385.342 219.335 386.912 212.765C388.527 206.005 389.346 199.019 389.346 192.002C389.346 185.963 388.738 179.928 387.538 174.064C386.369 168.35 384.624 162.73 382.353 157.359C380.122 152.086 377.361 147 374.147 142.242C370.963 137.529 367.306 133.097 363.279 129.069C359.251 125.042 354.819 121.385 350.106 118.201C345.348 114.987 340.262 112.226 334.989 109.995C329.618 107.724 323.998 105.979 318.284 104.81C312.421 103.61 306.385 103.002 300.346 103.002C290.347 103.002 280.531 104.647 271.173 107.893L270.384 108.167L269.974 107.438C262.358 93.8964 251.28 82.5238 237.938 74.55C231.19 70.5174 223.941 67.4012 216.392 65.2879C208.603 63.1077 200.513 62.0022 192.346 62.0022C181.362 62.0022 170.639 63.9792 160.476 67.8782C150.658 71.6449 141.651 77.0859 133.706 84.0502C125.807 90.9744 119.252 99.1444 114.222 108.333C109.069 117.747 105.702 127.909 104.212 138.537L104.101 139.333L103.3 139.395C94.3418 140.096 85.7229 142.455 77.6828 146.405C69.8703 150.244 62.8942 155.436 56.948 161.837C44.7298 174.989 38.001 192.125 38.001 210.089C38.001 219.663 39.8757 228.949 43.5732 237.691C45.3504 241.893 47.5501 245.945 50.1112 249.736C52.6482 253.491 55.5617 257.023 58.7709 260.232C61.9801 263.441 65.5113 266.355 69.2665 268.892C73.0574 271.453 77.11 273.652 81.3116 275.429C90.0534 279.127 99.3401 281.002 108.914 281.002H300.346H312.438ZM312.438 282.002H300.346H108.914C69.1976 282.002 37.001 249.805 37.001 210.089C37.001 172.288 66.1656 141.299 103.222 138.398C109.351 94.6596 146.918 61.0022 192.346 61.0022C226.048 61.0022 255.423 79.5253 270.846 106.948C280.088 103.743 290.013 102.002 300.346 102.002C350.052 102.002 390.346 142.297 390.346 192.002C390.346 206.461 386.937 220.123 380.878 232.229C371.541 261.111 344.428 282.002 312.438 282.002Z" fill="white" fill-opacity="0.5"/>
</g>
</g>
<defs>
<filter id="filter0_f_240_4382" x="0" y="2.72327" width="394.346" height="340.001" filterUnits="userSpaceOnUse" color-interpolation-filters="sRGB">
<feFlood flood-opacity="0" result="BackgroundImageFix"/>
<feBlend mode="normal" in="SourceGraphic" in2="BackgroundImageFix" result="shape"/>
<feGaussianBlur stdDeviation="2" result="effect1_foregroundBlur_240_4382"/>
</filter>
<filter id="filter1_f_240_4382" x="81.9736" y="0.0933838" width="138.879" height="135.194" filterUnits="userSpaceOnUse" color-interpolation-filters="sRGB">
<feFlood flood-opacity="0" result="BackgroundImageFix"/>
<feBlend mode="normal" in="SourceGraphic" in2="BackgroundImageFix" result="shape"/>
<feGaussianBlur stdDeviation="10" result="effect1_foregroundBlur_240_4382"/>
</filter>
<filter id="filter2_d_240_4382" x="17.001" y="33.0022" width="413.345" height="281" filterUnits="userSpaceOnUse" color-interpolation-filters="sRGB">
<feFlood flood-opacity="0" result="BackgroundImageFix"/>
<feColorMatrix in="SourceAlpha" type="matrix" values="0 0 0 0 0 0 0 0 0 0 0 0 0 0 0 0 0 0 127 0" result="hardAlpha"/>
<feOffset dx="10" dy="2"/>
<feGaussianBlur stdDeviation="15"/>
<feColorMatrix type="matrix" values="0 0 0 0 0.501961 0 0 0 0 0.501961 0 0 0 0 0.501961 0 0 0 0.302 0"/>
<feBlend mode="normal" in2="BackgroundImageFix" result="effect1_dropShadow_240_4382"/>
<feBlend mode="normal" in="SourceGraphic" in2="effect1_dropShadow_240_4382" result="shape"/>
</filter>
<linearGradient id="paint0_linear_240_4382" x1="213.699" y1="61.0048" x2="316.342" y2="309.169" gradientUnits="userSpaceOnUse">
<stop stop-color="white" stop-opacity="0.604"/>
<stop offset="1" stop-color="white" stop-opacity="0.2"/>
</linearGradient>
</defs>
</svg>
