<svg width="436" height="370" viewBox="0 0 436 370" fill="none" xmlns="http://www.w3.org/2000/svg">
<g filter="url(#filter0_f_240_4611)">
<path d="M186.37 192.299C187.086 192.317 194.352 217.547 194.352 227.351C194.352 237.155 190.778 245.104 186.37 245.104C181.962 245.104 178.388 237.156 178.388 227.352C178.388 217.548 185.654 192.282 186.37 192.299Z" fill="#42A0F0"/>
<path d="M182.513 230.351C183.679 230.708 185.215 229.065 185.944 226.682C186.672 224.299 186.318 222.078 185.152 221.721C183.985 221.365 182.449 223.008 181.721 225.391C180.992 227.774 181.347 229.995 182.513 230.351Z" fill="white"/>
<path d="M245.796 192.299C246.512 192.317 253.778 217.547 253.778 227.351C253.778 237.155 250.204 245.104 245.796 245.104C241.388 245.104 237.814 237.156 237.814 227.352C237.814 217.548 245.08 192.282 245.796 192.299Z" fill="#42A0F0"/>
<path d="M241.939 230.351C243.105 230.708 244.641 229.065 245.37 226.682C246.098 224.299 245.744 222.078 244.577 221.721C243.411 221.365 241.875 223.008 241.147 225.391C240.418 227.774 240.773 229.995 241.939 230.351Z" fill="white"/>
<path d="M300.683 189.299C301.399 189.317 308.665 214.547 308.665 224.351C308.665 234.155 305.091 242.104 300.683 242.104C296.275 242.104 292.701 234.156 292.701 224.352C292.701 214.548 299.967 189.282 300.683 189.299Z" fill="#42A0F0"/>
<path d="M296.826 227.351C297.992 227.708 299.528 226.065 300.257 223.682C300.985 221.299 300.631 219.078 299.465 218.721C298.298 218.365 296.762 220.008 296.034 222.391C295.305 224.774 295.66 226.995 296.826 227.351Z" fill="white"/>
<path d="M214.335 259.299C215.051 259.317 222.317 284.547 222.317 294.351C222.317 304.155 218.743 312.104 214.335 312.104C209.927 312.104 206.353 304.156 206.353 294.352C206.353 284.548 213.619 259.282 214.335 259.299Z" fill="#42A0F0"/>
<path d="M210.478 297.351C211.644 297.708 213.18 296.065 213.909 293.682C214.637 291.299 214.283 289.078 213.116 288.721C211.95 288.365 210.414 290.008 209.686 292.391C208.957 294.774 209.312 296.995 210.478 297.351Z" fill="white"/>
<path d="M273.761 259.299C274.477 259.317 281.743 284.547 281.743 294.351C281.743 304.155 278.169 312.104 273.761 312.104C269.353 312.104 265.779 304.156 265.779 294.352C265.779 284.548 273.045 259.282 273.761 259.299Z" fill="#42A0F0"/>
<path d="M269.904 297.351C271.07 297.708 272.606 296.065 273.335 293.682C274.064 291.299 273.709 289.078 272.543 288.721C271.377 288.365 269.841 290.008 269.112 292.391C268.383 294.774 268.738 296.995 269.904 297.351Z" fill="white"/>
<path d="M336.683 259.299C337.399 259.317 344.665 284.547 344.665 294.351C344.665 304.155 341.091 312.104 336.683 312.104C332.275 312.104 328.701 304.156 328.701 294.352C328.701 284.548 335.967 259.282 336.683 259.299Z" fill="#42A0F0"/>
<path d="M332.826 297.351C333.992 297.708 335.528 296.065 336.257 293.682C336.985 291.299 336.631 289.078 335.465 288.721C334.298 288.365 332.762 290.008 332.034 292.391C331.305 294.774 331.66 296.995 332.826 297.351Z" fill="white"/>
<path d="M186.37 312.299C187.086 312.317 194.352 337.547 194.352 347.351C194.352 357.155 190.778 365.104 186.37 365.104C181.962 365.104 178.388 357.156 178.388 347.352C178.388 337.548 185.654 312.282 186.37 312.299Z" fill="#42A0F0"/>
<path d="M182.513 350.351C183.679 350.708 185.215 349.065 185.944 346.682C186.672 344.299 186.318 342.078 185.152 341.721C183.985 341.365 182.449 343.008 181.721 345.391C180.992 347.774 181.347 349.995 182.513 350.351Z" fill="white"/>
<path d="M245.796 312.299C246.512 312.317 253.778 337.547 253.778 347.351C253.778 357.155 250.204 365.104 245.796 365.104C241.388 365.104 237.814 357.156 237.814 347.352C237.814 337.548 245.08 312.282 245.796 312.299Z" fill="#42A0F0"/>
<path d="M241.939 350.351C243.105 350.708 244.641 349.065 245.37 346.682C246.098 344.299 245.744 342.078 244.577 341.721C243.411 341.365 241.875 343.008 241.147 345.391C240.418 347.774 240.773 349.995 241.939 350.351Z" fill="white"/>
<path d="M300.683 312.299C301.399 312.317 308.665 337.547 308.665 347.351C308.665 357.155 305.091 365.104 300.683 365.104C296.275 365.104 292.701 357.156 292.701 347.352C292.701 337.548 299.967 312.282 300.683 312.299Z" fill="#42A0F0"/>
<path d="M296.826 350.351C297.992 350.708 299.528 349.065 300.257 346.682C300.985 344.299 300.631 342.078 299.465 341.721C298.298 341.365 296.762 343.008 296.034 345.391C295.305 347.774 295.66 349.995 296.826 350.351Z" fill="white"/>
<path d="M100.698 199.252C150.642 199.252 191.129 158.559 191.129 108.362C191.129 58.1648 150.642 17.4719 100.698 17.4719C50.7544 17.4719 10.2671 58.1648 10.2671 108.362C10.2671 158.559 50.7544 199.252 100.698 199.252Z" fill="#FA9E42"/>
<g filter="url(#filter1_f_240_4611)">
<path d="M94.1638 95.4362C124.219 79.4727 141.029 52.3097 131.711 34.7658C122.393 17.222 90.4742 15.9409 60.4193 31.9044C30.3643 47.8679 13.554 75.0309 22.8723 92.5748C32.1906 110.119 64.1089 111.4 94.1638 95.4362Z" fill="#F8E36F"/>
</g>
<path d="M114.53 227.424H161.176L134.361 266.802L165.714 267.396L99.9062 345.284L115.851 285.9H86.6602L114.53 227.424Z" fill="url(#paint0_linear_240_4611)"/>
<g filter="url(#filter2_d_240_4611)">
<path d="M305.345 253.942H113.913C95.3426 253.928 77.4976 246.73 64.1137 233.857C50.7298 220.983 42.8447 203.431 42.1092 184.875C41.3737 166.319 47.8448 148.198 60.1677 134.306C72.4906 120.413 89.71 111.826 108.221 110.342C110.861 91.7018 119.278 74.3585 132.289 60.7518C145.299 47.1451 162.248 37.9598 180.752 34.4882C199.255 31.0166 218.381 33.4334 235.439 41.3986C252.497 49.3637 266.628 62.4764 275.845 78.8918C292.75 73.04 311.015 72.3561 328.31 76.9275C345.605 81.4989 361.146 91.1183 372.952 104.559C384.757 117.999 392.292 134.652 394.594 152.392C396.896 170.132 393.862 188.156 385.879 204.165C381.194 218.63 372.047 231.238 359.751 240.181C347.455 249.124 332.641 253.941 317.437 253.942H305.345Z" fill="url(#paint1_linear_240_4611)"/>
<path d="M317.437 252.941C325.157 252.941 332.748 251.709 339.998 249.278C347.009 246.927 353.59 243.496 359.56 239.081C365.462 234.717 370.635 229.489 374.936 223.542C379.29 217.522 382.652 210.899 384.928 203.857L384.951 203.785L384.985 203.717C388.011 197.67 390.341 191.272 391.911 184.703C393.526 177.942 394.345 170.957 394.345 163.941C394.345 157.902 393.737 151.867 392.537 146.004C391.368 140.29 389.623 134.67 387.352 129.299C385.121 124.026 382.361 118.939 379.146 114.182C375.962 109.469 372.306 105.037 368.278 101.009C364.25 96.9813 359.819 93.3247 355.106 90.1407C350.348 86.9263 345.261 84.1656 339.988 81.9351C334.617 79.6635 328.997 77.9188 323.283 76.7496C317.42 75.5498 311.385 74.9414 305.345 74.9414C295.346 74.9414 285.531 76.5871 276.172 79.8327L275.383 80.1065L274.973 79.3781C267.357 65.8362 256.279 54.4636 242.937 46.4898C236.189 42.4572 228.94 39.3409 221.391 37.2276C213.602 35.0473 205.512 33.9419 197.345 33.9419C186.361 33.9419 175.638 35.9189 165.475 39.8179C155.657 43.5846 146.65 49.0256 138.705 55.9899C130.806 62.9141 124.251 71.0841 119.221 80.2727C114.069 89.687 110.701 99.8492 109.211 110.477L109.1 111.272L108.299 111.335C99.3408 112.036 90.7219 114.395 82.6818 118.345C74.8694 122.184 67.8932 127.375 61.947 133.776C49.7289 146.929 43 164.065 43 182.029C43 191.602 44.8748 200.889 48.5723 209.631C50.3495 213.832 52.5491 217.885 55.1102 221.676C57.6472 225.431 60.5607 228.962 63.7699 232.171C66.9791 235.381 70.5104 238.294 74.2655 240.831C78.0565 243.392 82.109 245.592 86.3106 247.369C95.0525 251.067 104.339 252.941 113.913 252.941H305.345H317.437ZM317.437 253.941H305.345H113.913C74.1966 253.941 42 221.745 42 182.029C42 144.228 71.1646 113.239 108.221 110.338C114.35 66.5993 151.917 32.9419 197.345 32.9419C231.048 32.9419 260.422 51.4651 275.845 78.8879C285.087 75.6826 295.012 73.9414 305.345 73.9414C355.051 73.9414 395.345 114.236 395.345 163.941C395.345 178.398 391.936 192.06 385.879 204.165C376.544 233.05 349.431 253.941 317.437 253.941Z" fill="white" fill-opacity="0.5"/>
</g>
</g>
<defs>
<filter id="filter0_f_240_4611" x="6.26709" y="13.4719" width="393.078" height="355.632" filterUnits="userSpaceOnUse" color-interpolation-filters="sRGB">
<feFlood flood-opacity="0" result="BackgroundImageFix"/>
<feBlend mode="normal" in="SourceGraphic" in2="BackgroundImageFix" result="shape"/>
<feGaussianBlur stdDeviation="2" result="effect1_foregroundBlur_240_4611"/>
</filter>
<filter id="filter1_f_240_4611" x="0.301758" y="0.721924" width="153.98" height="125.897" filterUnits="userSpaceOnUse" color-interpolation-filters="sRGB">
<feFlood flood-opacity="0" result="BackgroundImageFix"/>
<feBlend mode="normal" in="SourceGraphic" in2="BackgroundImageFix" result="shape"/>
<feGaussianBlur stdDeviation="10" result="effect1_foregroundBlur_240_4611"/>
</filter>
<filter id="filter2_d_240_4611" x="22" y="4.94189" width="413.345" height="281" filterUnits="userSpaceOnUse" color-interpolation-filters="sRGB">
<feFlood flood-opacity="0" result="BackgroundImageFix"/>
<feColorMatrix in="SourceAlpha" type="matrix" values="0 0 0 0 0 0 0 0 0 0 0 0 0 0 0 0 0 0 127 0" result="hardAlpha"/>
<feOffset dx="10" dy="2"/>
<feGaussianBlur stdDeviation="15"/>
<feColorMatrix type="matrix" values="0 0 0 0 0.501961 0 0 0 0 0.501961 0 0 0 0 0.501961 0 0 0 0.302 0"/>
<feBlend mode="normal" in2="BackgroundImageFix" result="effect1_dropShadow_240_4611"/>
<feBlend mode="normal" in="SourceGraphic" in2="effect1_dropShadow_240_4611" result="shape"/>
</filter>
<linearGradient id="paint0_linear_240_4611" x1="118.914" y1="286.354" x2="81.9877" y2="272.816" gradientUnits="userSpaceOnUse">
<stop stop-color="#FFD100"/>
<stop offset="1" stop-color="#FFF0AA"/>
</linearGradient>
<linearGradient id="paint1_linear_240_4611" x1="218.698" y1="32.9443" x2="321.341" y2="281.108" gradientUnits="userSpaceOnUse">
<stop stop-color="white" stop-opacity="0.604"/>
<stop offset="1" stop-color="white" stop-opacity="0.2"/>
</linearGradient>
</defs>
</svg>
