<svg width="35" height="28" viewBox="0 0 35 28" fill="none" xmlns="http://www.w3.org/2000/svg">
<path fill-rule="evenodd" clip-rule="evenodd" d="M26.7368 5.80003C25.8717 5.80003 27.1631 5.80003 25.9757 5.80003C24.4536 3.00132 21.4093 0.202637 16.0819 0.202637C10.7545 0.202637 7.04317 3.17225 6.18811 7.89905C2.81278 7.89905 0.0996094 11.0364 0.0996094 14.1961C0.860671 17.6945 1.62173 19.0938 5.46011 19.7935H26.9644C31.0352 19.7935 34.3474 16.6918 34.3474 12.8799C34.3474 9.06804 30.8076 5.80003 26.7368 5.80003ZM32.2164 12.6056C32.2164 15.4115 29.7532 17.6939 26.7242 17.6939H6.70028C4.31956 17.6939 2.38272 15.9001 2.38272 13.6951C2.38272 11.4894 4.31956 9.69513 6.70028 9.69513C6.85916 9.69513 7.03259 9.7068 7.24604 9.7307L7.94886 9.81186L8.0192 9.16262C8.45338 5.19993 12.0275 2.21166 16.3329 2.21166C19.8555 2.21166 23.0167 4.2811 24.1998 7.36165L24.4235 7.94307L25.0608 7.75575C25.6018 7.59789 26.1615 7.51785 26.7242 7.51785C29.7532 7.51785 32.2164 9.80018 32.2164 12.6056Z" fill="white"/>
<path fill-rule="evenodd" clip-rule="evenodd" d="M6.37573 22.6223C7.24705 24.0807 8.11837 25.5383 8.9906 26.9968C9.59689 28.0118 11.2905 27.1058 10.6833 26.0899C9.812 24.6315 8.94068 23.173 8.06845 21.7146C7.46216 20.6996 5.76853 21.6056 6.37573 22.6223Z" fill="white"/>
<path fill-rule="evenodd" clip-rule="evenodd" d="M12.8633 22.6222C13.7346 24.0805 14.6058 25.538 15.4771 26.9964C16.0843 28.0114 17.7778 27.1054 17.1706 26.0896C16.2994 24.6313 15.4281 23.1729 14.5559 21.7145C13.9497 20.6996 12.2552 21.6056 12.8633 22.6222Z" fill="white"/>
<path fill-rule="evenodd" clip-rule="evenodd" d="M19.6811 22.622C20.5531 24.0802 21.4243 25.5376 22.2955 26.9958C22.9017 28.0106 24.5959 27.1047 23.9888 26.0891C23.1176 24.6309 22.2456 23.1727 21.3744 21.7145C20.7682 20.6997 19.074 21.6055 19.6811 22.622Z" fill="white"/>
<path fill-rule="evenodd" clip-rule="evenodd" d="M26.2697 22.622C27.1409 24.0802 28.013 25.5375 28.8841 26.9957C29.4903 28.0105 31.1845 27.1047 30.5774 26.089C29.7054 24.6308 28.8342 23.1727 27.9631 21.7145C27.356 20.6997 25.6627 21.6055 26.2697 22.622Z" fill="white"/>
</svg>
